<?xml version="1.0" encoding="utf-8"?>
<!-- Generator: Adobe Illustrator 22.0.0, SVG Export Plug-In . SVG Version: 6.00 Build 0)  -->
<svg version="1.1" id="Layer_1" xmlns="http://www.w3.org/2000/svg" xmlns:xlink="http://www.w3.org/1999/xlink" x="0px" y="0px"
	 viewBox="0 0 32 32" style="enable-background:new 0 0 32 32;" xml:space="preserve">
<style type="text/css">
	.st0{fill:#4CBEA6;}
</style>
<title>atom</title>
<path class="st0" d="M27.9,16c1.3-1.4,2.1-2.8,2.7-4.1c0.6-1.5,0.6-2.8-0.1-3.9c-0.6-1.1-1.8-1.8-3.5-2c-1.5-0.2-3.1-0.2-5,0.2
	c-0.6-1.7-1.4-3.2-2.3-4.2C18.5,0.6,17.3,0,16,0c-1.3,0-2.5,0.6-3.6,1.9c-0.9,1.1-1.7,2.5-2.3,4.3C8.2,5.8,6.5,5.8,5,6
	C3.3,6.2,2.2,6.9,1.5,8c-0.6,1.1-0.7,2.4-0.1,3.9C2,13.3,2.9,14.6,4.1,16c-1.3,1.4-2.2,2.8-2.7,4.1c-0.6,1.5-0.6,2.8,0.1,3.9
	c0.6,1.1,1.8,1.8,3.5,2c1.4,0.2,3.1,0.2,5-0.2c0.6,1.7,1.4,3.2,2.3,4.2c1.1,1.3,2.3,1.9,3.6,1.9c1.3,0,2.5-0.6,3.6-1.9
	c0.9-1.1,1.7-2.5,2.3-4.3c1.9,0.4,3.6,0.4,5,0.2c1.7-0.3,2.9-0.9,3.5-2c0.6-1.1,0.7-2.4,0.1-3.9C30,18.8,29.1,17.4,27.9,16z
	 M13.8,28.8c-0.7-0.9-1.3-2-1.7-3.4c1.3-0.4,2.6-0.8,3.9-1.4c1.3,0.5,2.6,1,3.9,1.4c-0.5,1.4-1.1,2.6-1.8,3.4
	C16.8,30.6,15.2,30.6,13.8,28.8z M18.1,3.2c0.7,0.9,1.3,2,1.8,3.4C18.7,7,17.4,7.4,16,8c-1.3-0.5-2.6-1-3.9-1.4
	c0.5-1.4,1.1-2.5,1.7-3.4C15.2,1.4,16.8,1.4,18.1,3.2z M23.5,14.8c0.5,0.4,1,0.8,1.5,1.2c-0.3,0.3-0.6,0.5-0.9,0.8
	c-0.2,0.1-0.4,0.3-0.5,0.4c0-0.4,0-0.9,0-1.3C23.5,15.6,23.5,15.2,23.5,14.8z M23.3,12c-0.2-1.4-0.4-2.7-0.7-3.9
	c1.5-0.3,2.9-0.4,4-0.3c1.1,0.1,1.9,0.5,2.3,1.1c0.4,0.6,0.3,1.4-0.1,2.5c-0.4,1-1.2,2.1-2.2,3.2C25.5,13.7,24.4,12.8,23.3,12z
	 M16,21.7c-0.9-0.4-1.8-0.9-2.7-1.3c-1-0.6-1.8-1.1-2.5-1.5c-0.1-0.8-0.1-1.8-0.1-2.9c0-1.1,0-2,0.1-2.8c0.7-0.5,1.6-1,2.5-1.5
	c0.9-0.5,1.7-0.9,2.6-1.3c0.9,0.4,1.8,0.9,2.6,1.3c0.9,0.5,1.7,1,2.6,1.5c0.1,0.8,0.1,1.8,0.1,2.9c0,1.1,0,2-0.1,2.9
	c-0.8,0.5-1.6,1-2.5,1.5C17.8,20.9,16.9,21.3,16,21.7z M19.7,9.8c-0.3-0.2-0.7-0.4-1.1-0.6c0.6-0.2,1.3-0.4,1.8-0.6
	c0.1,0.6,0.3,1.2,0.4,1.8C20.5,10.2,20.1,10,19.7,9.8z M11.5,8.6c0.6,0.2,1.2,0.4,1.8,0.6c-0.4,0.2-0.7,0.4-1.1,0.6
	c-0.4,0.2-0.8,0.4-1.1,0.6C11.3,9.8,11.4,9.2,11.5,8.6z M8.5,17.2c-0.5-0.4-1-0.8-1.5-1.2c0.5-0.4,0.9-0.8,1.5-1.2
	c0,0.4,0,0.8,0,1.2C8.5,16.4,8.5,16.8,8.5,17.2z M9.5,8.1C9.1,9.3,8.9,10.7,8.7,12c-1.2,0.8-2.2,1.7-3.2,2.6c-1-1.1-1.8-2.2-2.2-3.2
	c-0.5-1-0.5-1.8-0.1-2.4c0.4-0.6,1.1-1,2.3-1.1c0.4,0,0.7-0.1,1.1-0.1C7.5,7.8,8.4,7.9,9.5,8.1z M3.3,20.6c0.4-1,1.2-2.1,2.2-3.2
	c1,0.9,2,1.8,3.2,2.6c0.1,1.3,0.4,2.6,0.7,3.9c-1.5,0.3-2.9,0.4-4,0.3c-1.2-0.1-1.9-0.5-2.3-1.1C2.8,22.4,2.9,21.6,3.3,20.6z
	 M12.2,22.2c0.3,0.2,0.7,0.4,1.1,0.6c-0.6,0.2-1.2,0.4-1.8,0.6c-0.1-0.6-0.3-1.2-0.4-1.8C11.5,21.8,11.9,22,12.2,22.2z M20.5,23.4
	c-0.6-0.2-1.2-0.4-1.8-0.6c0.4-0.2,0.7-0.4,1.1-0.6c0.4-0.2,0.7-0.4,1.1-0.6C20.7,22.2,20.6,22.9,20.5,23.4z M22.5,23.9
	c0.3-1.3,0.6-2.6,0.7-3.9c1.2-0.8,2.2-1.7,3.2-2.6c1,1.1,1.8,2.2,2.2,3.2c0.5,1,0.5,1.8,0.1,2.4c-0.4,0.6-1.1,1-2.3,1.1
	c-0.3,0-0.7,0.1-1.1,0.1C24.6,24.3,23.6,24.1,22.5,23.9z"/>
</svg>
