<?xml version="1.0" encoding="utf-8"?>
<!-- Generator: Adobe Illustrator 22.0.0, SVG Export Plug-In . SVG Version: 6.00 Build 0)  -->
<svg version="1.1" id="Layer_1" xmlns="http://www.w3.org/2000/svg" xmlns:xlink="http://www.w3.org/1999/xlink" x="0px" y="0px"
	 viewBox="0 0 28 28" style="enable-background:new 0 0 28 28;" xml:space="preserve">
<style type="text/css">
	.st0{fill:#4CBEA6;}
</style>
<title>check</title>
<path class="st0" d="M26.1,8.8c0,0.4-0.2,0.8-0.4,1.1L12.2,23.3c-0.3,0.3-0.7,0.4-1.1,0.4s-0.8-0.2-1.1-0.4l-7.8-7.8
	c-0.3-0.3-0.4-0.7-0.4-1.1s0.2-0.8,0.4-1.1l2.1-2.1c0.3-0.3,0.7-0.4,1.1-0.4s0.8,0.2,1.1,0.4l4.6,4.6L21.4,5.7
	c0.3-0.3,0.7-0.4,1.1-0.4s0.8,0.2,1.1,0.4l2.1,2.1C26,8.1,26.1,8.5,26.1,8.8L26.1,8.8z"/>
</svg>
