<?xml version="1.0" encoding="utf-8"?>
<!-- Generator: Adobe Illustrator 22.0.0, SVG Export Plug-In . SVG Version: 6.00 Build 0)  -->
<svg version="1.1" id="Layer_1" xmlns="http://www.w3.org/2000/svg" xmlns:xlink="http://www.w3.org/1999/xlink" x="0px" y="0px"
	 viewBox="0 0 32 32" style="enable-background:new 0 0 32 32;" xml:space="preserve">
<style type="text/css">
	.st0{fill:#4CBEA6;}
</style>
<title>clipboard-list</title>
<path class="st0" d="M13,5V4c0-1.1,0.9-2,2-2h1c1.1,0,2,0.9,2,2v1h2c0.6,0,1,0.4,1,1v1c0,0.6-0.4,1-1,1h-9c-0.6,0-1-0.4-1-1V6
	c0-0.6,0.4-1,1-1H13L13,5z M22,6h1c1.1,0,2,0.9,2,2v21c0,1.1-0.9,2-2,2H8c-1.1,0-2-0.9-2-2V8c0-1.1,0.9-2,2-2h1c0,0,0,0,0,0v1
	c0,1.1,0.9,2,2,2h9c1.1,0,2-0.9,2-2L22,6C22,6,22,6,22,6L22,6L22,6L22,6z M15.5,5C15.8,5,16,4.8,16,4.5S15.8,4,15.5,4S15,4.2,15,4.5
	S15.2,5,15.5,5L15.5,5z M14,14v1h8v-1H14z M9,13v3h3v-3H9z M10,14v1h1v-1H10z M9,18v3h3v-3H9z M10,19v1h1v-1H10z M14,19v1h8v-1H14z
	 M9,23v3h3v-3H9z M10,24v1h1v-1H10z M14,24v1h8v-1H14z"/>
</svg>
