<?xml version="1.0" encoding="utf-8"?>
<!-- Generator: Adobe Illustrator 22.0.0, SVG Export Plug-In . SVG Version: 6.00 Build 0)  -->
<svg version="1.1" id="Layer_1" xmlns="http://www.w3.org/2000/svg" xmlns:xlink="http://www.w3.org/1999/xlink" x="0px" y="0px"
	 viewBox="0 0 20 20" style="enable-background:new 0 0 20 20;" xml:space="preserve">
<style type="text/css">
	.st0{fill:#4CBEA6;}
</style>
<title>folder1</title>
<path class="st0" d="M18.4,4.8C18.3,4.4,17.8,4,17.2,4h-6.8C9.8,4,9.1,3.7,8.7,3.3L8.1,2.7C7.7,2.3,6.9,2,6.3,2H3.1C2.5,2,2,2.4,2,3
	L1.7,6h16.9C18.6,6,18.4,4.8,18.4,4.8z M19.4,7H0.6C0.2,7,0,7.3,0,7.6l0.9,9.7C1,17.7,1.3,18,1.7,18h16.6c0.4,0,0.7-0.3,0.8-0.7
	L20,7.6C20,7.3,19.8,7,19.4,7z"/>
</svg>
