<?xml version="1.0" encoding="utf-8"?>
<!-- Generator: Adobe Illustrator 22.0.0, SVG Export Plug-In . SVG Version: 6.00 Build 0)  -->
<svg version="1.1" id="b809eb86-ec6b-4213-aa3e-83f4128e49a5"
	 xmlns="http://www.w3.org/2000/svg" xmlns:xlink="http://www.w3.org/1999/xlink" x="0px" y="0px" viewBox="0 0 1082 725"
	 style="enable-background:new 0 0 1082 725;" xml:space="preserve">
<style type="text/css">
	.st0{opacity:0.2;}
	.st1{fill:#3F3D56;}
	.st2{fill:#4CBEA6;}
	.st3{opacity:0.1;enable-background:new    ;}
	.st4{opacity:0.1;fill:#4CBEA6;enable-background:new    ;}
	.st5{fill:url(#SVGID_1_);}
	.st6{fill:#A1616A;}
	.st7{fill:#46455B;}
	.st8{fill:#BBBDC8;}
</style>
<g class="st0">
	<path class="st1" d="M374.5,664.1c0.5,2.2,1.3,4.4,2.2,6.5c13.9-5.5,28-10.7,42.2-15.7c-0.1-0.6-0.2-1.2-0.4-1.8
		c-1.4-6.3-4.5-12.1-8.9-16.8c-5.7-6-13-8.9-20.1-7.1s-12.3,7.8-14.6,15.8C373.1,651.2,373,657.8,374.5,664.1z"/>
	<ellipse transform="matrix(0.976 -0.218 0.218 0.976 -126.3918 99.5253)" class="st1" cx="387.9" cy="622.6" rx="22.6" ry="30.3"/>
	<ellipse transform="matrix(0.976 -0.218 0.218 0.976 -118.7472 96.7927)" class="st1" cx="379.3" cy="586.6" rx="22.6" ry="30.3"/>
	<ellipse transform="matrix(0.976 -0.218 0.218 0.976 -111.1078 94.0569)" class="st1" cx="370.8" cy="550.6" rx="22.6" ry="30.3"/>
	<ellipse transform="matrix(0.976 -0.218 0.218 0.976 -103.4662 91.3208)" class="st1" cx="362.2" cy="514.6" rx="22.6" ry="30.3"/>
	<path class="st2" d="M385.7,247.7c2.1-4.7,3.8-9.5,5.3-14.4l-60,4.7l62.5-15.1c3-15.7,2.6-31.9-1.1-47.5
		c-3.3-13.8-9.1-26.8-17.2-38.4L302,202.4l63.4-77.5c-25.9-27.6-65-40.8-103.9-31c-58.1,14.5-93.7,74.6-79.5,134.1
		c5.6,24,19.1,45.5,38.4,61c-3.2,7.3-5.7,14.9-7.3,22.6l84.4,21.1l-86.4-7.5c-1,12.1-0.1,24.2,2.7,36c5.6,24,19.2,45.5,38.4,61
		c-10.1,22.7-12.4,48.1-6.6,72.3c14.2,59.5,72.8,96,130.9,81.5S470,501.5,455.9,442c-5.6-24-19.2-45.5-38.4-61
		c10.1-22.7,12.4-48.1,6.6-72.3C418.5,284.6,405,263.2,385.7,247.7z"/>
	<path class="st3" d="M213.7,361.3c5.6,24,19.2,45.5,38.4,61c-10.1,22.7-12.4,48.1-6.6,72.3c14.2,59.5,72.8,96,130.9,81.5
		s93.7-74.6,79.5-134.1c-5.6-24-19.2-45.5-38.4-61C427.2,359.1,210.8,349.2,213.7,361.3z"/>
</g>
<title>true friends</title>
<g class="st0">
	<path class="st1" d="M374.5,666.4c0.5,2.2,1.3,4.4,2.2,6.5c13.9-5.5,28-10.7,42.2-15.7c-0.1-0.6-0.2-1.2-0.4-1.8
		c-1.4-6.3-4.5-12.1-8.9-16.8c-5.7-6-13-8.9-20.1-7.1s-12.3,7.8-14.6,15.8C373.1,653.5,373,660.1,374.5,666.4z"/>
	<ellipse transform="matrix(0.976 -0.218 0.218 0.976 -126.89 99.5824)" class="st1" cx="387.9" cy="624.9" rx="22.6" ry="30.3"/>
	<ellipse transform="matrix(0.976 -0.218 0.218 0.976 -119.2454 96.8499)" class="st1" cx="379.4" cy="588.9" rx="22.6" ry="30.3"/>
	<ellipse transform="matrix(0.976 -0.218 0.218 0.976 -111.606 94.114)" class="st1" cx="370.8" cy="552.9" rx="22.6" ry="30.3"/>
	<ellipse transform="matrix(0.976 -0.218 0.218 0.976 -103.9644 91.3779)" class="st1" cx="362.2" cy="516.9" rx="22.6" ry="30.3"/>
	<path class="st2" d="M385.7,249.9c2.1-4.7,3.8-9.5,5.3-14.4l-60,4.7l62.5-15.1c3-15.7,2.6-31.9-1.1-47.5
		c-3.3-13.8-9.1-26.8-17.2-38.4L302,204.7l63.4-77.5c-25.9-27.6-65-40.8-103.9-31c-58.1,14.5-93.7,74.6-79.5,134.1
		c5.6,24,19.1,45.5,38.4,61c-3.2,7.3-5.7,14.9-7.3,22.6l84.4,21.1l-86.4-7.5c-1,12.1-0.1,24.2,2.7,36c5.6,24,19.2,45.5,38.4,61
		c-10.1,22.7-12.4,48.1-6.6,72.3c14.2,59.5,72.8,96,130.9,81.5s93.7-74.6,79.5-134.1c-5.6-24-19.2-45.5-38.4-61
		c10.1-22.7,12.4-48.1,6.6-72.3C418.5,286.9,405,265.4,385.7,249.9z"/>
	<path class="st3" d="M213.7,363.6c5.6,24,19.2,45.5,38.4,61c-10.1,22.7-12.4,48.1-6.6,72.3c14.2,59.5,72.8,96,130.9,81.5
		s93.7-74.6,79.5-134.1c-5.6-24-19.2-45.5-38.4-61C427.2,361.4,210.8,351.5,213.7,363.6z"/>
</g>
<g class="st0">
	<path class="st1" d="M644.2,655.4c-0.4,2.6-0.5,5.2-0.4,7.9c17.4,0.3,34.9,0.9,52.5,1.8c0.1-0.7,0.2-1.4,0.3-2.1
		c1.1-7.3,0.3-14.8-2.5-21.7c-3.6-8.8-10.4-15.1-18.8-16.3s-16.7,2.9-22.6,10.4C648.2,641.1,645.2,648.1,644.2,655.4z"/>
	
		<ellipse transform="matrix(0.1423 -0.9898 0.9898 0.1423 -30.756 1199.0811)" class="st1" cx="676.5" cy="617.3" rx="34.7" ry="26.5"/>
	
		<ellipse transform="matrix(0.1423 -0.9898 0.9898 0.1423 15.9194 1169.0763)" class="st1" cx="682.5" cy="575.4" rx="34.7" ry="26.5"/>
	
		<ellipse transform="matrix(0.1423 -0.9898 0.9898 0.1423 62.5837 1139.0786)" class="st1" cx="688.6" cy="533.4" rx="34.7" ry="26.5"/>
	
		<ellipse transform="matrix(0.1423 -0.9898 0.9898 0.1423 109.2661 1109.0848)" class="st1" cx="694.6" cy="491.5" rx="34.7" ry="26.5"/>
	<path class="st2" d="M833.9,218.6c4.2-4.1,8.2-8.4,11.8-13l-67.2-21.1l74.4,11.3c18.9-29.3,25-65.2,16.7-99.1l-107.4,37.4
		l101.9-54.5c-26.1-65-100-96.5-165-70.4s-96.5,100-70.4,165c2.2,5.6,4.9,11,7.9,16.2c-6.6,6.3-12.5,13.3-17.6,20.8l82.7,59.3
		L611,224.7c-19.4,38.2-18.2,83.7,3.3,120.8c-50.7,48.3-52.6,128.6-4.3,179.3s128.6,52.6,179.3,4.3c42.4-40.4,51.6-104.5,22.3-155.2
		C854,333.5,863.2,269.3,833.9,218.6z"/>
	<path class="st3" d="M598.5,264c-4.1,28.2,1.4,56.9,15.7,81.5c-50.7,48.3-52.6,128.6-4.3,179.3s128.6,52.6,179.3,4.3
		c42.4-40.4,51.6-104.5,22.3-155.2C831.5,354.9,600.6,249.9,598.5,264z"/>
</g>
<ellipse class="st4" cx="541" cy="694" rx="541" ry="31"/>
<ellipse class="st2" cx="894.7" cy="676.6" rx="25.3" ry="4.9"/>
<ellipse class="st1" cx="894.3" cy="674.6" rx="3" ry="3.9"/>
<ellipse class="st1" cx="894.3" cy="669.9" rx="3" ry="3.9"/>
<ellipse class="st1" cx="894.3" cy="665.2" rx="3" ry="3.9"/>
<ellipse class="st1" cx="894.3" cy="660.4" rx="3" ry="3.9"/>
<ellipse class="st1" cx="894.3" cy="655.7" rx="3" ry="3.9"/>
<ellipse class="st1" cx="894.3" cy="651" rx="3" ry="3.9"/>
<ellipse class="st1" cx="894.3" cy="646.3" rx="3" ry="3.9"/>
<path class="st2" d="M905.3,614c0.4-0.5,0.8-1.1,1.1-1.6l-7.7-1.3l8.4,0.1c1.6-3.5,1.7-7.6,0.3-11.2l-11.2,5.8l10.4-7.6
	c-3.9-6.8-12.5-9.1-19.3-5.2c-6.8,3.9-9.1,12.5-5.2,19.3c0.4,0.6,0.8,1.2,1.2,1.8c-0.6,0.8-1.2,1.7-1.6,2.6l10,5.2l-10.7-3.6
	c-1.5,4.5-0.7,9.5,2.3,13.3c-4.8,6.1-3.8,15,2.4,19.8c6.1,4.8,15,3.8,19.8-2.4c4-5.1,4-12.3,0-17.4
	C909.3,626.4,909.3,619.2,905.3,614L905.3,614z"/>
<path class="st3" d="M880.1,622.8c0,3.2,1,6.2,3,8.7c-4.8,6.1-3.8,15,2.4,19.8c6.1,4.8,15,3.8,19.8-2.4c4-5.1,4-12.3,0-17.4
	C907.2,629.1,880.1,621.2,880.1,622.8z"/>
<ellipse class="st2" cx="313.7" cy="714.2" rx="33.8" ry="6.5"/>
<ellipse class="st1" cx="313.1" cy="711.4" rx="3.9" ry="5.2"/>
<ellipse class="st1" cx="313.1" cy="705.1" rx="3.9" ry="5.2"/>
<ellipse class="st1" cx="313.1" cy="698.8" rx="3.9" ry="5.2"/>
<ellipse class="st1" cx="313.1" cy="692.5" rx="3.9" ry="5.2"/>
<ellipse class="st1" cx="313.1" cy="686.2" rx="3.9" ry="5.2"/>
<ellipse class="st1" cx="313.1" cy="679.9" rx="3.9" ry="5.2"/>
<ellipse class="st1" cx="313.1" cy="673.6" rx="3.9" ry="5.2"/>
<path class="st2" d="M327.9,630.5c0.5-0.7,1-1.4,1.5-2.2l-10.3-1.7l11.2,0.1c2.2-4.7,2.3-10.1,0.4-14.9l-15,7.8l13.8-10.1
	c-5.2-9-16.8-12-25.8-6.8c-9,5.2-12,16.8-6.8,25.8c0.4,0.7,0.9,1.4,1.4,2.1c-0.8,1.1-1.6,2.2-2.1,3.4l13.4,7l-14.3-4.8
	c-2,6-0.9,12.7,3,17.7c-6.4,8.2-5,20,3.2,26.5c8.2,6.4,20,5,26.5-3.2c5.4-6.8,5.4-16.5,0-23.3C333.2,647.1,333.2,637.5,327.9,630.5
	L327.9,630.5z"/>
<path class="st3" d="M294.2,642.2c0,4.2,1.4,8.3,4,11.7c-6.4,8.2-5,20,3.2,26.5c8.2,6.4,20,5,26.5-3.2c5.4-6.8,5.4-16.5,0-23.3
	C330.4,650.7,294.2,640.1,294.2,642.2z"/>
<linearGradient id="SVGID_1_" gradientUnits="userSpaceOnUse" x1="443.5509" y1="-66.0749" x2="443.5509" y2="474.575" gradientTransform="matrix(1 0 0 -1 -59 638.5)">
	<stop  offset="0" style="stop-color:#808080;stop-opacity:0.25"/>
	<stop  offset="0.54" style="stop-color:#808080;stop-opacity:0.12"/>
	<stop  offset="1" style="stop-color:#808080;stop-opacity:0.1"/>
</linearGradient>
<path class="st5" d="M491.7,427.9c-2.5-13.3-5.4-26.7-5.9-40.3c-0.3-8,0.3-16.1-0.8-24.1c-0.5-3.9-1.4-7.8-2.3-11.6l-3.5-15.4
	c0.4-3,0.3-6-0.3-8.9c-0.4-1.5-0.8-3-1.4-4.5c3.3-4.7,6-9.7,8.1-15c0.9-2.4,1.8-5,1.4-7.5c-0.7-4.9-5.4-8.1-9.8-10.5
	c-2.7-1.5-5.5-2.9-8.5-3.1c-4.3-0.2-8.5,1.7-11.2,5c-0.7-3.9-0.5-8,0.7-11.8c-2.6-1.2-5.2-2.3-7.9-3.3c-0.4-3.5-0.5-6.9-0.4-10.4
	c0.1-4.2,0.1-8.4,0.4-12.6c14.6-5.3,24.3-19.1,24.4-34.6c0-0.4,0-0.9,0-1.3c3.9-7,4.8-15.4,2.6-23.1c-2.9-10-10.6-18.2-19.8-23.3
	s-19.9-7.2-30.5-7.6c-3.6-0.2-7.1,0-10.6,0.7c-3.7,0.9-7.4,2.3-10.8,4c-5.3,2.4-10.6,5.1-14.6,9.3c-6.9,7.3-8.4,18.1-7.7,28
	c1,13,5.3,25.6,10.4,37.7c1.7,4,3.5,8.1,6.2,11.5c2.1,2.6,5.8,2.8,8.8,1c-0.2,3.2-0.3,6.4-0.2,9.6c-5.4-0.2-10.7,0.7-15.1,3.8
	c-2,1.4-3.9,3.7-3.5,6.1c2.8,0.1,5.1,2.1,5.5,4.9c0.2,2.1-0.9,4.2-1.9,6c-0.5,0.8-0.9,1.6-1.4,2.5c-4.3,4.6-8.7,10.4-9.1,16.1
	c-0.7,0.1-1.4,0.2-2.1,0.3c-3.9,0.7-7.8,2-11.6,3l-27.7,7.3l-6.8,1.9l-11,2.9c-7,1.8-14.1,3.7-20.3,7.4s-11.5,9.5-12.7,16.5
	c-0.6,3.5-0.2,7.1-1,10.5c0,0.2-0.1,0.3-0.1,0.5c-0.6,2.2-1.5,4.3-2.5,6.3c-6.2,13.1-10.6,27.4-9.8,41.8c0.5,8.9,3,17.5,5.4,26
	c2.5,8.7,5,17.4,7.5,26.1c1.6,6.2,3.7,12.4,6.2,18.3c4.3,9.5,10.6,18,18.5,24.8c2.2,2,4.7,3.7,7.4,5c4.1,1.8,8.6,2.5,13,2.1
	c1.2-0.1,2.4-0.2,3.5-0.4c8.6-1.4,16.6-5.5,24-10.2c3.1-1.9,6.1-4,9-6.2c0.4,3.4,1,6.7,2,9.9c0.6,2.2,1.5,4.5,1.2,6.8
	c-0.4,3.2-2.7,5.9-3.9,8.9c-2.6,6.4,0.1,13.5,0.5,20.3c0.4,6.4-1.1,12.8-2.4,19.1c-2.1,10.5-3.3,21.2-3.7,31.9
	c0,4.1-0.3,8.1-0.8,12.1c-0.9,5.7-3.1,11.2-3.5,16.9c-0.6,8.9,3.3,17.7,2.9,26.6c-0.4,10.5-6.6,20.7-4.4,31c0.3,1.3,1,2.8,2.2,3.1
	l-0.6,0.5c-1.8,1.6-3.5,4.7-1.5,6c0.5,0.3,1,0.5,1.5,0.5c3.1,0.7,6.2,1.2,9.4,1.8c-0.1,2.9,0.3,5.8,1.1,8.6c0.6,0.4,1.1,0.8,1.7,1.1
	c-0.4,1.2-0.4,2.3,0.6,3c0.5,0.3,1,0.5,1.5,0.5c25.8,5.3,52.1,7.5,78.3,6.5c4.7-0.2,9.6-0.5,13.6-2.9s6.7-7.5,4.8-11.7
	c-1.7-3.7-6.1-5.3-10.1-6.6l-4.7-1.4c1.2-2.1,1.4-4.7,0.4-7c-1.7-3.7-6.1-5.3-10.1-6.6l-10.7-3.3c-1.4-0.3-2.7-1-3.9-1.8
	c-0.8-0.8-1.5-1.6-2.1-2.5c-1.5-1.8-3.6-3-5.9-3.7c-0.1-2.3-0.1-4.6,0.1-6.8l3-36.2c0.7-8.2,1.3-16.6-0.6-24.6
	c-0.8-3.3-2-6.6-1.3-9.8c1.2-5.3,6.8-8.3,10.6-12.2c5.8-6,7.5-14.5,8.9-22.7c5.5-33.5,7.2-67.5,5.1-101.4c12-3.4,24.4-5.4,36.8-5.9
	c2.1-0.1,3.2-1.1,3.8-3.1S492,430,491.7,427.9z M431.8,429.7c0.1-0.3,0.1-0.7,0.2-1l0.8,1.1L431.8,429.7z"/>
<path class="st6" d="M412.3,246.1c-0.3,3.5-1.5,6.8-1.9,10.3c-0.5,3.8-0.1,7.7-0.3,11.6s-1.4,7.9-4.3,10.4
	c17,1.5,33.8,5.1,49.9,10.8c-4.9-6-5-14.4-4.9-22.1c0.2-11.4,0.4-23,4.1-33.8c-11.1-2.5-22.6-2.6-33.7-0.4
	c-2.4,0.5-9.8,0.2-10.8,2.4C409.5,237,412.5,243.6,412.3,246.1z"/>
<path class="st3" d="M412.3,246.1c-0.3,3.5-1.5,6.8-1.9,10.3c-0.5,3.8-0.1,7.7-0.3,11.6s-1.4,7.9-4.3,10.4
	c17,1.5,33.8,5.1,49.9,10.8c-4.9-6-5-14.4-4.9-22.1c0.2-11.4,0.4-23,4.1-33.8c-11.1-2.5-22.6-2.6-33.7-0.4
	c-2.4,0.5-9.8,0.2-10.8,2.4C409.5,237,412.5,243.6,412.3,246.1z"/>
<path class="st7" d="M432.5,660.5c0.6,0.9,1.3,1.7,2,2.5c1.1,0.9,2.4,1.5,3.8,1.8l10.5,3.3c3.9,1.2,8.2,2.8,9.9,6.6
	c1.9,4.2-0.8,9.3-4.7,11.7s-8.7,2.7-13.3,2.9c-25.7,1-51.4-1.2-76.6-6.5c-0.5-0.1-1-0.3-1.5-0.5c-2-1.3-0.3-4.4,1.4-6
	c6.8-6.4,14.1-13.1,23.3-14.6c4.8-0.8,9.7-0.5,14.5-1.6c3.5-0.8,6.7-2.3,10.1-3.1C418.3,655.5,427.9,654.9,432.5,660.5z"/>
<path class="st3" d="M432.5,660.5c0.6,0.9,1.3,1.7,2,2.5c1.1,0.9,2.4,1.5,3.8,1.8l10.5,3.3c3.9,1.2,8.2,2.8,9.9,6.6
	c1.9,4.2-0.8,9.3-4.7,11.7s-8.7,2.7-13.3,2.9c-25.7,1-51.4-1.2-76.6-6.5c-0.5-0.1-1-0.3-1.5-0.5c-2-1.3-0.3-4.4,1.4-6
	c6.8-6.4,14.1-13.1,23.3-14.6c4.8-0.8,9.7-0.5,14.5-1.6c3.5-0.8,6.7-2.3,10.1-3.1C418.3,655.5,427.9,654.9,432.5,660.5z"/>
<path class="st8" d="M379.9,434.4c-5.2,13.6-5.5,28.7-0.9,42.5c-3.5-0.4-5,4.3-4.9,7.9c0.1,4.9,0.9,9.8,2.2,14.5
	c0.6,2.2,1.4,4.5,1.2,6.8c-0.4,3.2-2.6,5.9-3.8,8.9c-2.5,6.4,0.1,13.5,0.5,20.3c0.4,6.4-1.1,12.8-2.4,19.1
	c-2,10.5-3.2,21.2-3.6,31.9c0,4.1-0.3,8.1-0.8,12.1c-0.9,5.7-3,11.2-3.4,16.9c-0.6,8.9,3.2,17.7,2.9,26.6c-0.4,10.5-6.4,20.7-4.3,31
	c0.3,1.5,1.1,3.2,2.6,3.2c15.1,0.2,29.2-4,44.1-1.8c1.5-34.5,3-69.2,9.8-103.1c6-30.2,16.2-60,15.2-90.8
	c-0.5-17.6-4.7-34.8-7.3-52.3C411,424.5,394.3,426.7,379.9,434.4z"/>
<path class="st3" d="M379.9,434.4c-5.2,13.6-5.5,28.7-0.9,42.5c-3.5-0.4-5,4.3-4.9,7.9c0.1,4.9,0.9,9.8,2.2,14.5
	c0.6,2.2,1.4,4.5,1.2,6.8c-0.4,3.2-2.6,5.9-3.8,8.9c-2.5,6.4,0.1,13.5,0.5,20.3c0.4,6.4-1.1,12.8-2.4,19.1
	c-2,10.5-3.2,21.2-3.6,31.9c0,4.1-0.3,8.1-0.8,12.1c-0.9,5.7-3,11.2-3.4,16.9c-0.6,8.9,3.2,17.7,2.9,26.6c-0.4,10.5-6.4,20.7-4.3,31
	c0.3,1.5,1.1,3.2,2.6,3.2c15.1,0.2,29.2-4,44.1-1.8c1.5-34.5,3-69.2,9.8-103.1c6-30.2,16.2-60,15.2-90.8
	c-0.5-17.6-4.7-34.8-7.3-52.3C411,424.5,394.3,426.7,379.9,434.4z"/>
<path class="st7" d="M446.5,675.5c0.6,0.9,1.3,1.7,2,2.5c1.1,0.9,2.4,1.5,3.8,1.8l10.5,3.3c3.9,1.2,8.2,2.8,9.9,6.6
	c1.9,4.2-0.8,9.3-4.7,11.7s-8.7,2.7-13.3,2.9c-25.7,1-51.4-1.2-76.6-6.5c-0.5-0.1-1-0.3-1.5-0.5c-2-1.3-0.3-4.4,1.4-6
	c6.8-6.4,14.1-13.1,23.3-14.6c4.8-0.8,9.7-0.5,14.5-1.6c3.5-0.8,6.7-2.3,10.1-3.1C432.3,670.5,441.9,669.9,446.5,675.5z"/>
<path class="st8" d="M385,435.4c-3.9,5-5,11.6-4.5,17.9s2.6,12.3,4.7,18.2c-2.8,2.5-2.2,6.9-1.8,10.6c1.3,13.8-3.5,27.6-2.8,41.5
	c0.3,5.8,1.6,11.6,1.9,17.4c0.3,6.4-0.5,12.7-1.2,19.1c-4.9,40.5-7.5,81.3-8,122.1c0,3.8-0.1,7.6,1,11.2c7.3,5.3,16.4,6.1,25.2,4.1
	s16.8-6.5,24.7-10.9c4.3-2.2,8.4-4.9,12.2-7.9c1.2-0.8,2-2,2.5-3.4c0.8-4-4.7-5.8-7.9-8.4c-4.6-3.8-4.6-10.8-4.1-16.7l2.9-36.2
	c0.7-8.2,1.3-16.5-0.6-24.5c-0.8-3.2-1.9-6.6-1.2-9.8c1.1-5.3,6.6-8.3,10.4-12.2c5.6-6,7.4-14.5,8.7-22.6
	c6.1-38.4,7.4-77.5,3.9-116.2c-7.4,2.5-16.1,1.2-23.8,1.8s-15.5,3.2-23.3,3.4C397.3,433.8,389.1,430.2,385,435.4z"/>
<circle class="st6" cx="438" cy="220" r="37"/>
<path class="st7" d="M458.9,280.9c-11.9-5.4-24.2-9.7-36.9-12.7c-8.9-2.1-19.1-3.4-26.6,1.9c-2,1.4-3.8,3.7-3.4,6.1
	c2.7,0.1,5,2.1,5.3,4.8c0.2,2.1-0.8,4.1-1.8,6l-8.6,16c-1.7,2.9-3.1,5.9-4.3,9c-1.7,5.1-2.1,10.5-2.5,15.9l-1,14.5
	c-0.6,9.1-1.3,18.3-0.4,27.5c0.6,6.9,2.1,13.8,1.1,20.7c-0.8,5.5-3.1,10.7-4.4,16.1c-2.5,10.2-1.3,21.4-6.1,30.7
	c1.9-0.9,4.1-1.1,6.2-0.6c14.5,2.7,25.9,14.1,39.9,18.5c3.5-5.2,8.4-9,12.3-13.8c3-3.6,4.9-7.9,5.7-12.5c3,4,5.5,7.1,7.3,11.8
	c0.3,1.1,0.9,2.1,1.6,2.9c1.9,1.8,5,1.1,7.5,0.4c12.4-3.7,25.2-5.9,38.2-6.5c2.1-0.1,3.1-1.1,3.7-3.1s0.3-4.1-0.1-6.2
	c-2.5-13.3-5.3-26.7-5.7-40.2c-0.3-8,0.3-16.1-0.7-24.1c-0.5-3.9-1.4-7.8-2.2-11.6l-7.1-31.7c-0.4-1.8-2.3-2.9-3.1-4.6
	c-3.3-6.6-9.5-11.4-12.8-18.1C457.5,292.6,457.1,286.5,458.9,280.9z"/>
<path class="st1" d="M407,234.8c0-0.5,0.1-1,0.4-1.5c0.4-0.4,0.9-0.7,1.4-0.9c3.1-1.5,4.8-4.8,4.2-8.1l3.5-0.7l0.1-12.2
	c5.2-2.9,12.3-0.7,17.2-4.1c2.8-1.9,4.2-5.2,5.8-8.1s4.2-5.8,7.5-6.1c-2.3,5.9-1.9,12.6,1.1,18.1c3.5-1.8,6.4-4.5,8.4-7.9l1.7,10
	c0,0.6,0.3,1.2,0.7,1.6c0.9,0.7,2.1-0.2,2.9-1l4.5-4.5c1.9,4.8,3.2,9.8,3.9,14.9c7.4-7.2,9.8-18.8,6.9-28.8s-10.3-18.2-19.4-23.3
	s-19.5-7.2-29.8-7.6c-3.5-0.2-7,0-10.4,0.7c-3.7,0.9-7.2,2.3-10.6,4c-5.2,2.4-10.4,5.1-14.3,9.3c-6.7,7.3-8.2,18.1-7.5,28
	c1,13,5.2,25.5,10.1,37.6c1.6,4,3.4,8,6.1,11.5c4,5.1,14,0.9,12.7-9.3C413.6,239.4,407,242.1,407,234.8z"/>
<path class="st2" d="M421,432.9c-12.5,25.5-31.6,47.1-55.5,62.6c-7.2,4.7-15,8.8-23.4,10.2c-1.1,0.2-2.3,0.3-3.5,0.4
	c-4.3,0.4-8.7-0.4-12.7-2.2c-2.6-1.3-5.1-3-7.2-5c-7.8-6.8-14-15.3-18.1-24.7c-2.4-5.9-4.5-12.1-6-18.3c-2.5-8.7-4.9-17.4-7.3-26.1
	c-2.4-8.5-4.8-17.1-5.3-26c-0.8-14.4,3.5-28.6,9.6-41.7c1-2,1.9-4.1,2.5-6.3c0-0.1,0.1-0.3,0.1-0.5c0.7-3.5,0.4-7.1,1-10.5
	c1.2-7,6.4-12.8,12.4-16.5s13-5.6,19.9-7.4l10.7-2.9l6.7-1.8l27.1-7.3c3.8-1,7.5-2.3,11.4-3c4.3-0.8,4.2-0.4,4.5,3.8
	c0.6,7.5,0.4,15,2,22.4c1.5,7.1,4.2,14,6.2,21c5,17.7,5.9,36.3,9.9,54.2c0.9,4.1,2.2,8.5,5.5,11c3.8,3,10.1,3.7,11.1,8.4
	C422.8,428.8,421.9,431,421,432.9z"/>
<path class="st3" d="M342.1,505.6c-1.1,0.2-2.3,0.3-3.5,0.4c-4.3,0.4-8.7-0.4-12.7-2.1c-2.6-1.3-5.1-3-7.2-5
	c-7.8-6.8-14-15.3-18.1-24.7c-2.4-5.9-4.5-12.1-6-18.3c-2.5-8.7-4.9-17.4-7.3-26.1c-2.4-8.5-4.8-17.1-5.3-26
	c-0.8-14.4,3.5-28.6,9.6-41.7c1-2,1.9-4.1,2.5-6.3c0-0.1,0.1-0.3,0.1-0.5c16.3,2.9,35.9,34.1,46,75
	C347.6,460.9,347.9,489,342.1,505.6z"/>
<path class="st3" d="M371.6,398l-2.7,0.5c-2.8-7.4-5.6-14.8-8.9-22c-1.7-3.8-3.6-7.5-5-11.3c-5.4-14.9-4.5-32.5-14.5-44.7
	c-0.7-0.9-1.5-1.7-2.4-2.5l6.7-1.8c5.8,9.2,9.9,19.4,12.1,30.1c1.1,5.2,1.7,10.6,3.5,15.6c1.5,3.8,3.2,7.5,5.1,11.1
	C369.3,380.8,372.1,389.3,371.6,398z"/>
<path class="st2" d="M398.2,285.3c7.2-6.2,17-9.5,26.3-8c5.5,0.9,10.6,3.4,15.5,6c9.6,5.1,19,10.9,25.9,19.3
	c4.1,5.3,7.6,11,10.2,17.2c1.3,2.7,2.3,5.5,3,8.4c2.4,11.3-3.5,22.5-9.3,32.5L458.7,380c-5.1,8.9-10.2,17.8-16.9,25.5
	c-3.1,3.6-6.4,6.9-9.8,10.2l-14.7,14.5c-0.3,0.3-0.6,0.5-1,0.7c-0.6,0-1.3-0.2-1.7-0.7l-4.9-3.9c4.5-3.1,8.6-6.6,12.4-10.5
	c6.4-6.6,11.6-14.1,16.8-21.7l16.2-23.5c4.7-6.9,9.7-14.4,9.1-22.8c-0.3-4-1.8-7.8-3.3-11.4c-2.8-6.5-5.8-12.9-9.1-19.3
	c-3.7-7.1-7.7-14.1-12.9-20.1s-11.9-11-19.6-13.2c-2.3-0.7-4.7-1-7.1-0.7c-5.3,0.9-9,5.4-12.3,9.6l-10.1,13c-2.3,3-4.4,6.4-4.6,0.8
	C385,298.7,393.1,290.4,398.2,285.3z"/>
<path class="st6" d="M401.4,373c2,7.7,5,16.4,12.4,19.4c5.3,2.1,11.4,0.4,15.9-3s7.8-8.2,10.7-13c2.5-4.3,5.3-8.5,8.3-12.5
	c5.9-7.4,14-13.3,18-22c1.2-2.6,2-5.3,3.3-7.8c1.4-2.3,3.1-4.5,4.8-6.5c4.6-5.7,8.3-12.1,10.9-18.9c0.9-2.4,1.7-5,1.3-7.5
	c-0.7-4.9-5.3-8.1-9.6-10.5c-2.6-1.5-5.3-2.9-8.3-3.1c-4.3-0.3-8.6,2-11.3,5.4c-2.6,3.5-4,7.8-4.1,12.2c-0.3,5.3,0.7,10.9-1,15.9
	c-0.9,2.4-2.2,4.5-3.8,6.5c-5.6,7.5-12.6,13.9-20.5,18.9c-0.2-3.8-1-7.5-2.4-11c-0.8-1.9-15.7,0-17.6,0.3c-3.8,0.6-11.3,1-13.7,4.7
	s0.6,9.8,1.6,13.5L401.4,373z"/>
<path class="st7" d="M401,289c-2.2,1.8-4.3,3.8-6.2,6c-4.4,5.4-6.6,12.3-7.2,19.2s0.4,13.9,1.6,20.7c1.1,6.1,2.4,12.3,3.8,18.3
	c0.4-4.6,4.1-8.4,8.4-10s9-1.5,13.6-0.8c5.9,0.9,11.6,2.5,17.1,4.9l2.1-29.6c0.4-4,0.4-8-0.1-12c-1.3-7.5-5.8-14-12.3-18
	C413.8,283,408.2,282.7,401,289z"/>
<circle class="st4" cx="473" cy="60" r="7"/>
<circle class="st4" cx="520" cy="195" r="7"/>
<circle class="st4" cx="387" cy="67" r="7"/>
<circle class="st4" cx="172" cy="386" r="18"/>
<circle class="st4" cx="897" cy="100" r="7"/>
<circle class="st4" cx="905" cy="195" r="23"/>
<circle class="st4" cx="942" cy="130" r="7"/>
<circle class="st4" cx="880" cy="258" r="7"/>
<circle class="st4" cx="459" cy="116" r="7"/>
<circle class="st4" cx="197" cy="470" r="7"/>
<circle class="st4" cx="186" cy="310" r="7"/>
<circle class="st4" cx="570" cy="53" r="7"/>
<circle class="st4" cx="593" cy="116" r="7"/>
<g class="st0">
	<path class="st1" d="M645.5,658.4c-0.4,2.6-0.5,5.2-0.4,7.9c17.4,0.3,34.9,0.9,52.5,1.8c0.1-0.7,0.2-1.4,0.3-2.1
		c1.1-7.3,0.3-14.8-2.5-21.7c-3.6-8.8-10.4-15.1-18.8-16.3s-16.7,2.9-22.6,10.4C649.4,644.1,646.5,651.1,645.5,658.4z"/>
	
		<ellipse transform="matrix(0.1423 -0.9898 0.9898 0.1423 -32.6287 1202.9198)" class="st1" cx="677.8" cy="620.3" rx="34.7" ry="26.5"/>
	
		<ellipse transform="matrix(0.1423 -0.9898 0.9898 0.1423 14.0467 1172.9152)" class="st1" cx="683.8" cy="578.4" rx="34.7" ry="26.5"/>
	
		<ellipse transform="matrix(0.1423 -0.9898 0.9898 0.1423 60.711 1142.9175)" class="st1" cx="689.8" cy="536.4" rx="34.7" ry="26.5"/>
	
		<ellipse transform="matrix(0.1423 -0.9898 0.9898 0.1423 107.3933 1112.9237)" class="st1" cx="695.9" cy="494.5" rx="34.7" ry="26.5"/>
	<path class="st2" d="M835.2,221.6c4.2-4.1,8.2-8.4,11.8-13l-67.2-21.1l74.4,11.3c18.9-29.3,25-65.2,16.7-99.1l-107.4,37.4
		l101.9-54.5c-26.1-65-100-96.5-165-70.4s-96.5,100-70.4,165c2.2,5.6,4.9,11,7.9,16.2c-6.6,6.3-12.5,13.3-17.6,20.8l82.7,59.3
		l-90.7-45.7c-19.4,38.2-18.2,83.7,3.3,120.8c-50.7,48.3-52.6,128.6-4.3,179.3s128.6,52.6,179.3,4.3
		c42.4-40.4,51.6-104.5,22.3-155.2C855.2,336.5,864.5,272.3,835.2,221.6z"/>
	<path class="st3" d="M599.8,267c-4.1,28.2,1.4,56.9,15.7,81.5c-50.7,48.3-52.6,128.6-4.3,179.3s128.6,52.6,179.3,4.3
		c42.4-40.4,51.6-104.5,22.3-155.2C832.8,357.9,601.9,252.9,599.8,267z"/>
</g>
</svg>
