<?xml version="1.0" encoding="utf-8"?>
<!-- Generator: Adobe Illustrator 22.0.0, SVG Export Plug-In . SVG Version: 6.00 Build 0)  -->
<svg version="1.1" id="_x34_57bf273-24a3-4fd8-a857-e9b918267d6a"
	 xmlns="http://www.w3.org/2000/svg" xmlns:xlink="http://www.w3.org/1999/xlink" x="0px" y="0px" viewBox="0 0 698 698"
	 style="enable-background:new 0 0 698 698;" xml:space="preserve">
<style type="text/css">
	.st0{fill:#D8D6D6;}
	.st1{fill:#4CBEA6;}
	.st2{fill:#333333;}
	.st3{opacity:0.1;enable-background:new    ;}
	.st4{fill:#FDB797;}
</style>
<title>profile pic</title>
<circle class="st0" cx="349.7" cy="346.8" r="341.6"/>
<path class="st1" d="M350,689.8c66.8,0.1,132.1-19.4,187.8-56.2c-12.6-68.8-60.5-72.7-60.5-72.7H213.1c0,0-45.2,3.7-59.3,67
	C211.2,668.3,279.8,689.9,350,689.8z"/>
<circle class="st2" cx="346.4" cy="339.6" r="164.9"/>
<path class="st3" d="M293.1,476.9h105.7l0,0v84.5c0,29.2-23.6,52.8-52.8,52.8l0,0c-29.2,0-52.8-23.7-52.8-52.8c0,0,0,0,0,0
	L293.1,476.9L293.1,476.9L293.1,476.9z"/>
<path class="st4" d="M296.5,473h99c1.9,0,3.4,1.5,3.4,3.4l0,0v81.2c0,29.2-23.6,52.8-52.8,52.8c0,0,0,0,0,0l0,0
	c-29.2,0-52.8-23.7-52.8-52.8c0,0,0,0,0,0v-81.2C293.2,474.5,294.7,473,296.5,473z"/>
<path class="st3" d="M293.3,516.8c34.1,12.7,71.5,12.8,105.7,0.3v-13H293.3V516.8z"/>
<circle class="st4" cx="346.4" cy="372.4" r="151.5"/>
<path class="st3" d="M238.5,234.7c0,0,63.8,129.6,243.9,54.3l-41.9-65.7l-74.3-26.7L238.5,234.7z"/>
<path class="st2" d="M238.5,232.8c0,0,63.8,129.6,243.9,54.3l-41.9-65.7l-74.3-26.7L238.5,232.8z"/>
<path class="st2" d="M237.9,224c4.3-13.3,11.7-25.4,21.7-35.3c29.8-29.5,78.6-35.7,103.7-69.2c6,9.3,1.4,23.6-9,27.6
	c24-0.2,51.8-2.3,65.4-22c6.8,15.9,3.9,34.4-7.6,47.4c21.3,1,44,15.4,45.3,36.6c0.9,14.2-8,27.6-19.6,35.7s-25.7,11.9-39.6,14.9
	C357.9,268.7,211.5,306.1,237.9,224z"/>
<ellipse class="st4" cx="194.9" cy="372.3" rx="14.1" ry="26.4"/>
<ellipse class="st4" cx="497.8" cy="372.3" rx="14.1" ry="26.4"/>
</svg>
