<?xml version="1.0" encoding="utf-8"?>
<!-- Generator: Adobe Illustrator 22.0.0, SVG Export Plug-In . SVG Version: 6.00 Build 0)  -->
<svg version="1.1" id="_x32_cf41747-0c0c-4d70-aad4-093c093adad4"
	 xmlns="http://www.w3.org/2000/svg" xmlns:xlink="http://www.w3.org/1999/xlink" x="0px" y="0px" viewBox="0 0 1022.8 813.2"
	 style="enable-background:new 0 0 1022.8 813.2;" xml:space="preserve">
<style type="text/css">
	.st0{opacity:0.1;fill:#27CCA5;enable-background:new    ;}
	.st1{fill:#4CBEA6;}
	.st2{fill:#444053;}
	.st3{fill:#1A1A1C;}
	.st4{fill:#D5D6DB;}
	.st5{opacity:0.1;enable-background:new    ;}
	.st6{opacity:0.3;fill:#FFFFFF;enable-background:new    ;}
	.st7{opacity:0.45;fill:#FFFFFF;enable-background:new    ;}
	.st8{opacity:0.1;fill:#4CBEA6;enable-background:new    ;}
	.st9{fill:url(#SVGID_1_);}
	.st10{fill:#BE6F72;}
	.st11{fill:#3E373A;}
	.st12{fill:#4B4B5B;}
	.st13{opacity:2.000000e-02;enable-background:new    ;}
	.st14{fill:#E7C7CA;}
	.st15{fill:#C3C7D9;}
	.st16{opacity:0.1;}
	.st17{opacity:0.1;fill:none;stroke:#000000;stroke-miterlimit:10;enable-background:new    ;}
	.st18{fill:#FFD037;}
	.st19{fill:#FFFFFF;}
</style>
<title>book lover</title>
<path class="st0" d="M599.9,137.4c-64.7-2.3-126.4-23.1-185.2-46S297.5,43.2,234.3,31.1c-40.6-7.8-87.1-8.9-119.8,12.9
	C83,65,72.8,101.2,67.3,134.7c-4.1,25.3-6.5,51.8,4.8,75.5c7.8,16.4,21.7,30.2,31.4,46c33.5,54.7,9.8,122.2-26.4,175.6
	c-17,25.1-36.8,49-49.9,75.7S7.9,564.8,19.4,592c11.4,27,38.5,47.2,67.9,61.5c59.7,29,130,37.2,198.6,41.9
	c151.8,10.4,304.5,5.9,456.7,1.4c56.3-1.7,112.9-3.4,168.3-12.1c30.8-4.8,62.6-12.5,84.9-31c28.4-23.5,35.4-63.4,16.4-92.9
	c-31.9-49.5-120-61.8-142.3-114.9c-12.3-29.2,0.3-61.8,18.2-88.9c38.2-58.2,102.3-109.2,105.7-175.7c2.3-45.7-28.5-91.4-76.1-113
	c-49.9-22.7-119.2-19.9-156,17.6C723.7,124.6,657,139.4,599.9,137.4z"/>
<path class="st0" d="M600.8,136.6c-64.7-2.3-126.4-23.1-185.2-46S298.4,42.4,235.2,30.3c-40.6-7.8-87.1-8.9-119.8,12.9
	c-31.5,21-41.7,57.2-47.2,90.7c-4.1,25.3-6.5,51.8,4.8,75.5c7.8,16.4,21.7,30.2,31.4,46c33.5,54.7,9.8,122.2-26.4,175.6
	c-17,25.1-36.7,49-49.9,75.7c-13.1,26.7-19.2,57.2-7.7,84.5c11.4,27,38.5,47.2,67.9,61.5c59.7,29,130,37.2,198.6,41.9
	c151.8,10.4,304.5,5.9,456.7,1.4c56.3-1.7,112.9-3.4,168.3-12.1c30.8-4.8,62.6-12.5,84.9-31c28.4-23.5,35.4-63.4,16.4-92.9
	c-31.9-49.5-120-61.8-142.3-114.9c-12.3-29.2,0.3-61.8,18.2-88.9c38.2-58.2,102.3-109.2,105.7-175.7c2.3-45.7-28.5-91.4-76.1-113
	c-49.9-22.7-119.2-19.9-156,17.6C724.6,123.7,657.9,138.5,600.8,136.6z"/>
<polygon class="st1" points="435.5,690.5 93.2,688.8 59.2,609.1 179.4,600.3 158.5,512.9 396.3,482 168.6,402.9 188.7,398.1 
	554.9,457.8 534.8,594.3 505.9,669.3 "/>
<path class="st1" d="M98.4,655.4c0,0,21-3.4,33.6,11.5c0,0-9.2,7.3-29.1-2.8L98.4,655.4z"/>
<path class="st1" d="M96.2,655.1c0,0-13.4,16.5-6.8,34.8c0,0,10.9-4.4,12.1-26.6L96.2,655.1z"/>
<path class="st1" d="M84.2,628c0,0,8.4-15.4,42,6.2c0,0-4.5,10.4-19.3,9.5S88.1,636.1,84.2,628z"/>
<path class="st1" d="M82,626.9c0,0-17.4-2-19.1,37.9c0,0,11.1,2.3,18.9-10.3S86.4,634.7,82,626.9z"/>
<path class="st1" d="M71.9,595c0,0,9.8-27.2,45.4-7.8c0,0-8.1,24.9-41.7,17.1L71.9,595z"/>
<path class="st1" d="M60.9,554.4c0,0,18.5-27.4,51.2-2c0,0-11.5,25.8-48.4,11.8L60.9,554.4z"/>
<path class="st1" d="M57,515.8c0,0,21.6-25.2,54,0c0,0-20.4,22.1-54,6.4V515.8z"/>
<path class="st1" d="M53.7,478.3c0,0,21.8-26.3,52.9-1.4c0,0-24.6,23.2-52.9,7.6V478.3z"/>
<path class="st1" d="M55.6,445c0,0,23-33.9,52.1-10.9c0,0-24.6,29.1-52.1,17.4V445z"/>
<path class="st1" d="M60.9,406c0,0,24.4-33.6,52.6-7.8c0,0-28.8,29.1-52.6,14V406z"/>
<path class="st1" d="M69.1,371.2c0,0,28.8-31.6,54-19c0,0-30.1,33.5-55.3,27.4L69.1,371.2z"/>
<path class="st1" d="M79.1,338.3c0,0,33.3-38.7,52.6-25.8c0,0-24.5,30-55,33L79.1,338.3z"/>
<path class="st1" d="M93.7,300c0,0,29.1-31.6,50.4-23.7c0,0-24.9,32.8-54.3,33.6L93.7,300z"/>
<path class="st1" d="M106.9,264.2c0,0,32.2-30.2,46.2-24.9c0,0-23.2,33.6-47.6,31.6L106.9,264.2z"/>
<path class="st1" d="M119.7,231.2c0,0,27.7-36.1,42.9-33.3c0,0-16.8,32.2-42.9,37V231.2z"/>
<path class="st1" d="M133.7,186.6c0,0,24.5-27.7,37.7-27.6c0,0-19.3,37-38.8,36.7L133.7,186.6z"/>
<path class="st1" d="M142,157l23.7-57.7c0,0,1.2,52.1-26.7,68.4L142,157z"/>
<path class="st1" d="M151.6,93.4c0,0,3.9-48.2,1.4-52.1c0,0,16.9,40.1-1.6,73.4L151.6,93.4z"/>
<path class="st1" d="M70.9,594.4c0,0-24.5-15.2-40.4,22c0,0,21.8,14.5,43.3-12.5L70.9,594.4z"/>
<path class="st1" d="M60.1,552.9c0,0-30.1-13.7-44.7,25.1c0,0,23.3,16,47.4-15.3L60.1,552.9z"/>
<path class="st1" d="M55.6,518.1c0,0-21.6-25.2-54,0c0,0,20.4,22.1,54,6.4V518.1z"/>
<path class="st1" d="M52.9,478.3c0,0-21.8-26.3-52.9-1.4c0,0,24.6,23.2,52.9,7.6V478.3z"/>
<path class="st1" d="M55.6,445.9c0,0-15.3-38-48.6-21.6c0,0,18,33.7,47.3,27.9L55.6,445.9z"/>
<path class="st1" d="M62.9,405.8c0,0-15.2-38.6-49-20.7c0,0,20.7,35.4,47.5,26.7L62.9,405.8z"/>
<path class="st1" d="M72.3,371.4c0,0-6-42.3-34-46.1c0,0,5.9,44.6,30.2,53.8L72.3,371.4z"/>
<path class="st1" d="M79.8,338.3c0,0-2.3-51-25.5-52.8c0,0,0.8,38.7,22.9,60L79.8,338.3z"/>
<path class="st1" d="M96.1,298.6c0,0-6.9-42.4-29-47.6c0,0,2.7,41.1,26.8,58L96.1,298.6z"/>
<path class="st1" d="M109.5,264.6c0,0-0.2-44.2-13.7-50.7c0,0-8.4,40,9.8,56.3L109.5,264.6z"/>
<path class="st1" d="M120.8,230.7c0,0-1.9-45.5-15.9-51.9c0,0-4.8,36,13.8,54.9L120.8,230.7z"/>
<path class="st1" d="M135.7,190.3c0,0-0.1-37-10.1-45.7c0,0-9.9,40.5,4.9,53.1L135.7,190.3z"/>
<path class="st1" d="M140.8,155.2l-9.7-61.6c0,0-13.2,50.5,10.2,72.7L140.8,155.2z"/>
<path class="st1" d="M142.7,93.9c0,0-24.9-41.4-24.4-46c0,0,2.6,43.4,34,65L142.7,93.9z"/>
<path class="st1" d="M145.6,81.7c0,0-23.5-58.8-34.2-63.6c0,0,33.6,17.1,36.1,61.9L145.6,81.7z"/>
<path class="st2" d="M132.6,196l-1.6-0.5c19.9-64.7,24.8-106,13.9-116.3l1.1-1.2C157.6,88.9,152.9,129.7,132.6,196z"/>
<path class="st2" d="M77.9,347.6l-2.4-0.9c2.1-5.9,4.4-12,6.8-17.9c20.7-51.6,38.4-99.7,49.7-136.6l2.1-1
	c-11.3,37-28.7,86.8-49.4,138.5C82.3,335.7,80,341.6,77.9,347.6z"/>
<path class="st3" d="M128,703.9c-0.3-0.3-32.5-36.6-54.9-98.4c-13.1-36.2-20.5-74.3-21.7-112.8C49.9,444.5,60,390.8,77.3,342
	l1.9,2.2c-38.8,109.6-23.4,203.5-2.9,260c22.2,61.3,54,97.1,54.3,97.5L128,703.9z"/>
<path class="st4" d="M630.7,626.9c0,0-22.7,27.7-4.7,69.5l-181,78.5l-17.4,3.6l-8-35l5.3-44.2v-24.1L630.7,626.9z"/>
<polygon class="st1" points="59.2,609.1 309.7,563.4 641.6,616.3 435.5,690.5 "/>
<polygon class="st1" points="59.2,609.1 309.7,563.4 641.6,616.3 435.5,690.5 "/>
<path class="st1" d="M59.2,609c0,0-23.4,44.4,3.6,85.4l371.5,80.5c0,0-23.1-35.4,1.2-84.4L59.2,609z"/>
<path class="st5" d="M59.2,609c0,0-23.4,44.4,3.6,85.4l371.5,80.5c0,0-23.1-35.4,1.2-84.4L59.2,609z"/>
<path class="st5" d="M70.2,624.4c0,0-13.4,32.5,0,53.5"/>
<path class="st1" d="M434.2,774.9l207.4-88.5c0,0,11.6,2.5,4.1,11s-207.5,86-207.5,86l-375.5-89L434.2,774.9z"/>
<path class="st5" d="M434.2,774.9l207.4-88.5c0,0,11.6,2.5,4.1,11s-207.5,86-207.5,86l-375.5-89L434.2,774.9z"/>
<path class="st5" d="M417.2,699.4c0,0-20,24,0,60"/>
<rect x="422.1" y="714" transform="matrix(0.9486 -0.3165 0.3165 0.9486 -201.9892 185.2657)" class="st5" width="94.6" height="1"/>
<rect x="420.7" y="716.5" transform="matrix(0.9347 -0.3554 0.3554 0.9347 -223.6107 216.8406)" class="st5" width="115.2" height="1"/>
<rect x="420.1" y="721.2" transform="matrix(0.9255 -0.3788 0.3788 0.9255 -237.0892 238.2308)" class="st5" width="133.6" height="1"/>
<rect x="419.8" y="723.2" transform="matrix(0.9113 -0.4117 0.4117 0.9113 -253.8853 268.6144)" class="st5" width="153.7" height="1"/>
<rect x="420.6" y="725.2" transform="matrix(0.9163 -0.4005 0.4005 0.9163 -248.4141 262.8899)" class="st5" width="168.1" height="1"/>
<rect x="421.7" y="725.9" transform="matrix(0.918 -0.3965 0.3965 0.918 -245.1869 266.6563)" class="st5" width="201.2" height="1"/>
<polygon class="st6" points="152.2,613.9 328.2,576.9 435.5,597.4 291.2,643.9 "/>
<path class="st1" d="M641.6,616.3c0,0,9.1,3.7,3.8,9.3s-210,64.9-210,64.9L641.6,616.3z"/>
<path class="st4" d="M730,530.8c0,0-22.7,27.7-4.7,69.5l-181,78.5l-17.4,3.7l-8-35l5.4-44.2v-24.2L730,530.8z"/>
<polygon class="st1" points="158.5,512.9 409,467.2 740.9,520.1 534.8,594.3 "/>
<path class="st1" d="M158.4,512.9c0,0-23.4,44.4,3.6,85.4l371.5,80.5c0,0-23-35.4,1.2-84.5L158.4,512.9z"/>
<path class="st5" d="M158.4,512.9c0,0-23.4,44.4,3.6,85.4l371.5,80.5c0,0-23-35.4,1.2-84.5l-117.5-25.4L158.4,512.9z"/>
<path class="st5" d="M169.5,528.3c0,0-13.4,32.5,0,53.5"/>
<path class="st1" d="M533.5,678.8l207.4-88.5c0,0,11.6,2.5,4.1,11s-207.5,86-207.5,86l-375.5-89L533.5,678.8z"/>
<path class="st5" d="M533.5,678.8l207.4-88.5c0,0,11.6,2.5,4.1,11s-207.5,86-207.5,86l-375.5-89L533.5,678.8z"/>
<path class="st5" d="M516.5,603.3c0,0-20,24,0,60"/>
<rect x="521.4" y="617.8" transform="matrix(0.9486 -0.3165 0.3165 0.9486 -166.4499 211.7481)" class="st5" width="94.6" height="1"/>
<rect x="520" y="620.3" transform="matrix(0.9347 -0.3554 0.3554 0.9347 -182.9424 245.8588)" class="st5" width="115.2" height="1"/>
<rect x="519.4" y="625" transform="matrix(0.9255 -0.3788 0.3788 0.9255 -193.2521 268.6765)" class="st5" width="133.6" height="1"/>
<rect x="519.1" y="627" transform="matrix(0.9113 -0.4117 0.4117 0.9113 -205.4826 300.9679)" class="st5" width="153.7" height="1"/>
<rect x="519.9" y="629" transform="matrix(0.9163 -0.4005 0.4005 0.9163 -201.5741 294.6051)" class="st5" width="168.2" height="1"/>
<rect x="521" y="629.7" transform="matrix(0.918 -0.3965 0.3965 0.918 -198.904 298.1445)" class="st5" width="201.2" height="1"/>
<polygon class="st7" points="251.5,517.8 427.5,480.8 534.8,501.3 390.5,547.8 "/>
<path class="st1" d="M740.9,520.1c0,0,9.1,3.7,3.8,9.3s-209.9,64.9-209.9,64.9L740.9,520.1z"/>
<path class="st4" d="M739.4,420.7c0,0-22.7,49.7-4.7,91.5l-181,56.5l-17.3,3.7l-8-35l5.3-44.2v-24.2L739.4,420.7z"/>
<polygon class="st1" points="167.9,402.9 418.4,357.2 750.4,410.1 544.2,484.3 "/>
<path class="st1" d="M167.9,402.8c0,0-23.5,44.4,3.5,85.4l371.5,80.5c0,0-23.1-35.4,1.2-84.4L167.9,402.8z"/>
<path class="st5" d="M167.9,402.8c0,0-23.5,44.4,3.5,85.4l371.5,80.5c0,0-23.1-35.4,1.2-84.4L167.9,402.8z"/>
<path class="st5" d="M179,418.2c0,0-13.4,32.5,0,53.5"/>
<path class="st1" d="M543,568.7l207.4-66.5c0,0,11.6,2.5,4.1,11s-207.5,64-207.5,64l-375.5-89L543,568.7z"/>
<path class="st5" d="M543,568.7l207.4-66.5c0,0,11.6,2.5,4.1,11s-207.5,64-207.5,64l-375.5-89L543,568.7z"/>
<path class="st5" d="M526,493.2c0,0-20,24,0,60"/>
<rect x="530.8" y="507.8" transform="matrix(0.9486 -0.3165 0.3165 0.9486 -131.142 209.0809)" class="st5" width="94.6" height="1"/>
<rect x="529.5" y="510.3" transform="matrix(0.9347 -0.3554 0.3554 0.9347 -143.219 242.0281)" class="st5" width="115.2" height="1"/>
<rect x="528.9" y="515" transform="matrix(0.9255 -0.3788 0.3788 0.9255 -150.8721 264.048)" class="st5" width="133.6" height="1"/>
<rect x="528.5" y="517" transform="matrix(0.9113 -0.4117 0.4117 0.9113 -159.3487 295.0981)" class="st5" width="153.7" height="1"/>
<rect x="529.4" y="519" transform="matrix(0.9163 -0.4005 0.4005 0.9163 -156.7189 289.1786)" class="st5" width="168.1" height="1"/>
<rect x="530.5" y="519.6" transform="matrix(0.918 -0.3965 0.3965 0.918 -154.5083 292.8708)" class="st5" width="201.2" height="1"/>
<polygon class="st6" points="261,407.7 437,370.7 544.2,391.2 400,437.7 "/>
<path class="st1" d="M750.4,410.1c0,0,9.1,3.7,3.8,9.3s-209.9,64.9-209.9,64.9L750.4,410.1z"/>
<path class="st1" d="M310.4,106.5c0,0-38-2.3-33.6,24.4c0,0-0.9,4.7,3.4,6.9c0,0,0.1-2,3.9-1.3c1.4,0.2,2.8,0.3,4.1,0.2
	c1.9-0.1,3.6-0.9,5-2.1l0,0c0,0,10.7-4.4,14.8-21.9c0,0,3.1-3.8,3-4.8l-6.4,2.7c0,0,2.2,4.6,0.5,8.5c0,0-0.2-8.3-1.5-8.1
	c-0.3,0-3.3,1.6-3.3,1.6s3.8,8.1,0.9,13.9c0,0,1.1-9.9-2.1-13.4l-4.5,2.6c0,0,4.4,8.3,1.4,15.1c0,0,0.8-10.4-2.4-14.5l-4.1,3.2
	c0,0,4.1,8.2,1.6,13.9c0,0-0.3-12.1-2.5-13.1c0,0-3.6,3.2-4.1,4.5c0,0,2.8,6,1.1,9.1c0,0-1.1-8.1-2-8.1c0,0-3.6,5.4-3.9,9
	c0.2-3.4,1.2-6.7,3.1-9.5c-2.1,0.4-4,1.4-5.5,2.8c0,0,0.5-3.8,6.4-4.1c0,0,3-4.1,3.7-4.3c0,0-5.8-0.5-9.3,1.1c0,0,3.1-3.6,10.3-2
	l4-3.3c0,0-7.6-1-10.8,0.1c0,0,3.7-3.2,11.9-0.9l4.4-2.6c0,0-6.5-1.4-10.3-0.9c0,0,4.1-2.2,11.6,0.2l3.1-1.4c0,0-4.7-0.9-6.1-1.1
	c-1.4-0.2-1.5-0.5-1.5-0.5c3-0.5,6.1-0.1,8.9,1C303.8,109.3,310.5,106.9,310.4,106.5z"/>
<path class="st8" d="M845,216.1c0,0-38-2.3-33.6,24.4c0,0-0.9,4.7,3.4,6.9c0,0,0.1-2,3.9-1.3c1.4,0.2,2.8,0.3,4.1,0.2
	c1.8-0.1,3.6-0.9,5-2.1l0,0c0,0,10.7-4.4,14.8-21.9c0,0,3.1-3.8,3-4.8l-6.4,2.7c0,0,2.2,4.6,0.5,8.5c0,0-0.2-8.3-1.4-8.1
	c-0.3,0-3.3,1.6-3.3,1.6s3.8,8.1,0.9,13.9c0,0,1.1-9.9-2.1-13.4l-4.5,2.6c0,0,4.4,8.3,1.4,15.1c0,0,0.8-10.4-2.4-14.5l-4.1,3.2
	c0,0,4.1,8.2,1.6,13.9c0,0-0.3-12.1-2.5-13.1c0,0-3.6,3.2-4.1,4.5c0,0,2.8,6,1.1,9.1c0,0-1.1-8.1-2-8.1c0,0-3.6,5.4-3.9,9
	c0.2-3.4,1.2-6.7,3.1-9.5c-2.1,0.4-4,1.4-5.5,2.8c0,0,0.6-3.8,6.3-4.1c0,0,3-4.1,3.7-4.3c0,0-5.8-0.5-9.3,1.1c0,0,3.1-3.6,10.3-2
	l4-3.3c0,0-7.6-1-10.8,0.1c0,0,3.7-3.2,11.9-0.9l4.4-2.6c0,0-6.5-1.4-10.3-0.9c0,0,4.1-2.2,11.6,0.2l3.2-1.4c0,0-4.7-0.9-6.1-1.1
	s-1.5-0.5-1.5-0.5c3-0.5,6.1-0.2,8.9,1C838.4,218.9,845.1,216.5,845,216.1z"/>
<path class="st8" d="M374.4,271.2c0,0-16.6-34.3-37.6-17.4c0,0-4.5,1.5-4.3,6.3c0,0,1.8-0.9,3,2.8c0.5,1.3,1.1,2.5,1.8,3.7
	c1,1.6,2.5,2.8,4.3,3.4l0,0c0,0,9.1,7.2,26.4,2.3c0,0,4.8,0.8,5.6,0.3l-5.5-4.3c0,0-3,4.2-7.2,4.5c0,0,7.2-4.2,6.4-5.2
	c-0.2-0.2-3-2.1-3-2.1s-5.2,7.2-11.7,7.6c0,0,9.2-3.9,10.6-8.3l-4.5-2.7c0,0-5.1,7.9-12.5,8.6c0,0,9.5-4.4,11.5-9.1l-4.8-2
	c0,0-5.1,7.6-11.3,8.2c0,0,10.4-6.2,10.2-8.6c0,0-4.5-1.6-5.9-1.4c0,0-3.8,5.4-7.4,5.4c0,0,6.5-4.9,6.1-5.7c0,0-6.4-0.5-9.8,1
	c3-1.5,6.4-2.2,9.8-2c-1.3-1.6-3.1-2.8-5.1-3.4c0,0,3.6-1.4,6.7,3.5c0,0,5,0.6,5.6,1.2c0,0-2.4-5.3-5.4-7.6c0,0,4.6,0.9,6.7,8
	l4.8,1.9c0,0-2.8-7.1-5.4-9.4c0,0,4.6,1.7,6.5,10l4.4,2.6c0,0-1.9-6.3-4.3-9.4c0,0,3.9,2.5,5.5,10.2l2.8,2.1c0,0-1.5-4.6-2-5.9
	c-0.5-1.3-0.3-1.5-0.3-1.5c1.9,2.4,3.1,5.2,3.5,8.3C368.7,266.9,374.1,271.5,374.4,271.2z"/>
<path class="st8" d="M758.2,167.6c0,0-16.5-34.3-37.6-17.4c0,0-4.5,1.5-4.3,6.3c0,0,1.8-0.9,3,2.8c0.5,1.3,1.1,2.6,1.8,3.7
	c1,1.6,2.5,2.8,4.3,3.4l0,0c0,0,9.1,7.2,26.4,2.3c0,0,4.8,0.8,5.6,0.2l-5.5-4.3c0,0-3,4.2-7.2,4.6c0,0,7.2-4.2,6.4-5.2
	c-0.2-0.2-3-2.1-3-2.1s-5.2,7.2-11.7,7.6c0,0,9.2-3.9,10.6-8.3l-4.6-2.6c0,0-5.1,7.9-12.5,8.6c0,0,9.5-4.4,11.5-9.1l-4.8-2
	c0,0-5.2,7.6-11.3,8.2c0,0,10.4-6.2,10.2-8.6c0,0-4.5-1.6-5.9-1.4c0,0-3.8,5.4-7.4,5.4c0,0,6.5-4.9,6.1-5.7c0,0-6.4-0.5-9.8,1
	c3-1.5,6.4-2.2,9.8-2c-1.3-1.6-3.1-2.8-5.1-3.4c0,0,3.6-1.4,6.7,3.5c0,0,5,0.6,5.6,1.2c0,0-2.4-5.3-5.5-7.6c0,0,4.6,0.9,6.7,8.1
	l4.9,1.9c0,0-2.8-7.1-5.4-9.4c0,0,4.6,1.7,6.5,10l4.5,2.6c0,0-1.9-6.3-4.3-9.4c0,0,3.9,2.5,5.5,10.2l2.8,2.1c0,0-1.5-4.6-2-5.9
	s-0.3-1.5-0.3-1.5c1.9,2.4,3.1,5.2,3.5,8.3C752.5,163.4,757.9,167.9,758.2,167.6z"/>
<path class="st8" d="M811.1,337.4c0,0-16.5-34.3-37.7-17.4c0,0-4.5,1.5-4.3,6.3c0,0,1.8-0.9,3,2.8c0.5,1.3,1.1,2.6,1.8,3.7
	c1,1.6,2.5,2.8,4.3,3.4l0,0c0,0,9.1,7.2,26.4,2.3c0,0,4.8,0.8,5.6,0.2l-5.5-4.3c0,0-3,4.2-7.2,4.5c0,0,7.2-4.2,6.4-5.2
	c-0.2-0.2-3-2.1-3-2.1s-5.2,7.2-11.7,7.6c0,0,9.2-3.9,10.6-8.4l-4.5-2.7c0,0-5.1,7.9-12.5,8.6c0,0,9.5-4.4,11.5-9.1l-4.8-2
	c0,0-5.2,7.6-11.3,8.2c0,0,10.4-6.2,10.2-8.6c0,0-4.5-1.6-5.9-1.4c0,0-3.8,5.4-7.4,5.4c0,0,6.5-4.9,6.1-5.7c0,0-6.4-0.5-9.8,1
	c3-1.5,6.4-2.2,9.8-2c-1.3-1.6-3.1-2.8-5.1-3.4c0,0,3.6-1.4,6.7,3.5c0,0,5,0.6,5.6,1.2c0,0-2.4-5.3-5.4-7.6c0,0,4.6,0.9,6.7,8
	l4.8,1.9c0,0-2.8-7.1-5.4-9.4c0,0,4.6,1.7,6.5,10l4.5,2.5c0,0-1.9-6.3-4.3-9.4c0,0,3.9,2.5,5.5,10.2l2.8,2c0,0-1.5-4.6-2-5.9
	c-0.5-1.3-0.3-1.5-0.3-1.5c1.9,2.4,3.1,5.2,3.5,8.3C805.3,333.1,810.8,337.7,811.1,337.4z"/>
<ellipse class="st8" cx="201.9" cy="781.6" rx="23" ry="2.6"/>
<ellipse class="st8" cx="51.2" cy="737.9" rx="23" ry="2.6"/>
<ellipse class="st8" cx="316.8" cy="810.6" rx="23" ry="2.6"/>
<ellipse class="st8" cx="905.5" cy="747.4" rx="23" ry="2.6"/>
<ellipse class="st8" cx="714.2" cy="734.9" rx="23" ry="2.6"/>
<ellipse class="st8" cx="590.5" cy="793.7" rx="27.2" ry="4.7"/>
<path class="st1" d="M602.6,746.7c0,0-37.9,19.6-18.3,42.6c0,0,1.8,5,7.2,4.7c0,0-1.1-1.9,3-3.5c1.4-0.6,2.8-1.3,4.1-2.2
	c1.7-1.2,3-2.9,3.7-4.9l0,0c0,0,7.7-10.4,1.7-29.5c0,0,0.8-5.4,0.1-6.3l-4.6,6.3c0,0,4.8,3.2,5.3,7.9c0,0-5-7.9-6-7
	c-0.2,0.2-2.3,3.5-2.3,3.5s8.2,5.6,8.8,12.8c0,0-4.6-10.2-9.7-11.6l-2.9,5.1c0,0,9,5.5,10,13.7c0,0-5.2-10.5-10.6-12.6l-2.1,5.4
	c0,0,8.7,5.5,9.5,12.4c0,0-7.3-11.5-9.9-11.1c0,0-1.6,5.1-1.4,6.7c0,0,6.1,4.1,6.2,8.1c0,0-5.7-7.2-6.5-6.7c0,0-0.4,7.2,1.4,10.9
	c0,0-3-5.3-2.5-10.9c-1.8,1.6-3,3.6-3.6,5.8c0,0-1.6-4,3.7-7.6c0,0,0.5-5.6,1.1-6.3c0,0-5.8,2.8-8.3,6.3c0,0,0.9-5.2,8.8-7.8l2-5.5
	c0,0-7.9,3.3-10.3,6.3c0,0,1.8-5.2,10.9-7.6l2.7-5c0,0-7,2.4-10.4,5c0,0,2.7-4.4,11.3-6.5l2.2-3.2c0,0-5.1,1.8-6.5,2.5
	s-1.7,0.3-1.7,0.3c2.6-2.2,5.7-3.6,9.1-4.1C597.9,753.3,602.9,747.1,602.6,746.7z"/>
<linearGradient id="SVGID_1_" gradientUnits="userSpaceOnUse" x1="635.2258" y1="270.6899" x2="635.2258" y2="772.5724" gradientTransform="matrix(1 0 0 -1 -88.58 772.58)">
	<stop  offset="0" style="stop-color:#808080;stop-opacity:0.25"/>
	<stop  offset="0.54" style="stop-color:#808080;stop-opacity:0.12"/>
	<stop  offset="1" style="stop-color:#808080;stop-opacity:0.1"/>
</linearGradient>
<path class="st9" d="M715,377.3c-6.5-17.8-42.5-19.4-58.2-14.9c-11.1,3.2-34.5,6.9-47,8.7l-0.8-0.8c1.6-0.5,1.7-1.7,1.5-3.4
	c-0.1-2.3-0.1-4.6,0.1-6.9c7.7,2.4,14.5-3.3,14.5-3.3l0,0c9-4,6.6-21.1,8.3-25.8c1.3-3.5,2.7-24.1,3.3-34.4h0.1l0.1-3.5
	c0.1-1.5,0.1-2.4,0.1-2.4s0.9-25.1,2.6-30.2c1.6-4.7,2.9-28.3,3.1-32c0-0.3,0-0.5,0-0.5l-0.1-2.2c0.1-1.6,0.1-3.4,0.1-5.2
	c0-8.6-0.9-19.3-1-21.1c0-0.3,0-0.6,0-0.9c0.1-3.6-0.4-21.9-15.9-28.8c-5.7-2.6-12.6-5.6-19.3-8.6c-1.7-14.9-5.7-29.6-5.3-44.6
	c0-2.3,0.2-4.5,0.4-6.7c0,0.6-0.1,1.3-0.1,2c0,1.4,0,2.9,0,4.4c0.6-18.7,7.7-37.5,7-55.8c-0.1,1.8-0.2,3.6-0.4,5.4
	c0.3-6.2-0.3-12.4-1.9-18.4c-0.6-2.1-1.4-4.3-3.1-5.7c-1.6-1.1-3.5-1.9-5.5-2.2c-4.7-1.2-9.5-2.1-14.4-2.7c-0.7-2.3-1.8-4.4-3.2-6.3
	c-10.1-13.9-25.2-27-42.9-30c-8.9-1.5-19.2-0.3-25.2,6.1c-0.6,0.6-1.2,1.2-1.8,1.8c-3.3,3.9-4.7,9-8,12.9c-0.2,0.3-0.5,0.5-0.7,0.8
	c-6.5,5.8-16.7,7.1-24,12.3c-1.3,0.9-2.5,2-3.6,3.1c-2.9,2.9-5.6,6.1-7.8,9.5c-3.3,4.6-6.6,9.4-7.7,14.9c-2.1,11,5.4,21.4,6.8,32.5
	c3.1,24.8-24.3,46.8-19.1,71.2c1.4,6,4.4,11.5,8.8,15.8c-10.7,9.7-19.8,19.1-19.8,19.1v0.6h-1.7l0.2,2h-0.2l0.9,10.9l-0.9,15.8
	c0,0,0,0.2,0,0.5v0.1v0.4c0,0,0,0.2,0,0.5h0.1c0.3,5.8,1.5,26.6,3,31c1.7,5.1,2.6,30.2,2.6,30.2s1.9,35.5,3.6,40.2
	s-0.7,21.8,8.3,25.8l0,0c2.6,2,5.8,3.3,9.1,3.8c-0.5,3.7-0.2,6.5,1.3,7.3c0.6,0.4,1.4,0.6,2.1,0.6c-0.6,0.9-1.2,1.9-1.6,2.9
	c-3.6-0.4-7.1-1.2-10.5-2.5c-9.7-4-41.9-13-51.2-6.7c-9.3,6.3-31.8,12.1-21.5,37.5s15.2,26.1,15.2,26.1c3.2,2.3,6,5.1,8.3,8.3
	c3.1,4.7,32.2,15.4,39.5,15.4c3.1,0,6.2,0.1,9.3,0.5c0,0-7.9,6.9-6.8,10.9c1,4-2.4,36.2-2.4,36.2s8,8.1,11.4-2.5l0.1,0.2
	c0.6,0.9,4.1,4.8,10.6-0.2c2.7-2,5.5-3.8,8.5-5.4l31.5-4.5c3.3-0.2,6.6-0.2,9.9-0.1c5,0.4,9.9-2.5,13-4.8c6.5,2.5,13.9,5.2,17.4,6.2
	c7.1,2,39.6,10.7,47.2,8c1.6-0.6,3-1.6,4.1-2.9l7.3,0.2l-3.4,0.7c0,0,6.6,0.1,15.6,0.2l-0.4,0.2l11.3-0.1
	c16.5,0.2,35.1,0.2,37.5-0.3c3.8-0.8,23.7-0.3,29.5,0h1.6c0,0,21.8-4.3,12.8-26.5c-6.9-17-28.2-21.9-37.6-23.3
	c2.7-0.5,5-0.9,6.5-1.2c6.6-1,19.4-7,20.4-9s11.8-8,14.5-11.4S721.5,395.1,715,377.3z M534.3,427l-1.1,0.3l-0.7,0.2l-1.4,1.4
	c-1.1-0.7-2.3-1.5-3.5-2.3C529.8,426.8,532,426.9,534.3,427z M629.6,455.2L629.6,455.2z"/>
<path class="st10" d="M598.1,321.6c0,0,15.3,40,24,36s6.3-21,8-25.7c1.7-4.7,3.5-40,3.5-40s0.8-25,2.5-30.1c1.5-4.6,2.8-28.1,3-31.8
	c0-0.3,0-0.5,0-0.5l-1.7-29l-9.3-2.3l-21.7,8l-3,17.1l-1.2,6.7l-0.5,2.9L598.1,321.6z"/>
<path class="st5" d="M603.1,314.9c0,0,14.6,12,19,13s7.1,10.4,7.1,10.4"/>
<path class="st10" d="M478.4,323.3c0,0-15.3,40-24,36s-6.3-21-8-25.7c-1.7-4.7-3.5-40-3.5-40s-0.8-25-2.5-30.1
	c-1.5-4.6-2.8-28.1-3-31.8c0-0.3,0-0.5,0-0.5l1.7-29l9.3-2.3l21.7,8l3,17.1l1.2,6.7l0.5,2.9L478.4,323.3z"/>
<rect x="543.9" y="109.3" class="st11" width="34.2" height="53.2"/>
<rect x="543.9" y="109.3" class="st5" width="34.2" height="53.2"/>
<path class="st12" d="M472.4,363.2c0,0-11.7,12.8-7.3,15.2s32.3,46,32.3,46s92,11.3,109.3-5.7s17-47.4,17-47.4s-13.9,3-15.5,1.4
	s-9.9-9.5-9.9-9.5S480.4,356,472.4,363.2z"/>
<path class="st13" d="M472.4,363.2c0,0-11.7,12.8-7.3,15.2s32.3,46,32.3,46s92,11.3,109.3-5.7s17-47.4,17-47.4s-13.9,3-15.5,1.4
	s-9.9-9.5-9.9-9.5S480.4,356,472.4,363.2z"/>
<path class="st10" d="M638,201l-30,24l-9.1,0.7l-3.3,0.2l-55.9,4.1l-58-4.2l-8.6-0.6l-11-0.8l-23-22c0,0,16.3-17.4,30.5-29.2
	c5.6-4.6,10.9-8.4,14.8-9.9l0.7-0.2c2.4-0.9,4.6-2.5,6.3-4.4c11.3-11.6,21.7-40.3,21.7-40.3s49.7-25.7,43.7,8s22.3,25.3,22.3,25.3
	l9.3,4.3l3.7,1.7l9.4,4.3l21.2,9.7C639.4,179.3,638,201,638,201z"/>
<circle class="st5" cx="537.4" cy="101.1" r="44.7"/>
<path class="st5" d="M638.1,232.8H437.4c0-0.3,0-0.5,0-0.5l1.7-29c0,0,16.3-17.4,30.5-29.2l126-5l5.9-6.2l21.2,9.7
	C639.4,180.3,638,202,638,202S640.3,227.1,638.1,232.8z"/>
<path class="st14" d="M638.1,231.8H437.4c0-0.3,0-0.5,0-0.5l1.7-29c0,0,16.3-17.4,30.5-29.2l126-5l5.9-6.2l21.2,9.7
	C639.4,179.3,638,201,638,201S640.3,226.1,638.1,231.8z"/>
<path class="st5" d="M505.2,150.5c0,0,31.7,40.3,73.8-0.8s4.7,91.8,4.7,91.8l-91,10.8L505.2,150.5z"/>
<path class="st14" d="M505.2,152.5c0,0,31.7,40.3,73.8-0.8s4.7,91.8,4.7,91.8l-91,10.8L505.2,152.5z"/>
<path class="st5" d="M592.1,159.6l3.3,51.1l3.6,17l2.7,13c0,0,7,100,5,105s1,9,1.4,11.7c0.4,2.7-0.4,9.3-0.1,12.3s0,4.3-7.7,3.3
	c-7.7-1.1-18.3-2.9-18.3-2.9s-27,2-36.3-1.3c-9.3-3.3-27-3.3-27-3.3s-26.7,0.7-35.3-0.3s-13.3,10.7-19,7.3s6.7-35.7,10.7-45
	c4-9.3-5.3-33-5.3-33l12-66.6l2.7-15.1v-47.4l0.7-0.2c2.4-0.9,4.6-2.5,6.3-4.4l3,47.7l94,3.3v-53.7"/>
<path class="st14" d="M592.1,157.6l3.3,51.1l3.6,17l2.7,13c0,0,7,100,5,105s1,9,1.4,11.7c0.4,2.7-0.4,9.3-0.1,12.3s0,4.3-7.7,3.3
	c-7.7-1.1-18.3-2.9-18.3-2.9s-27,2-36.3-1.3c-9.3-3.3-27-3.3-27-3.3s-26.7,0.7-35.3-0.3s-13.3,10.7-19,7.3s6.7-35.7,10.7-45
	c4-9.3-5.3-33-5.3-33l12-66.6l2.7-15.1v-47.4l0.7-0.2c2.4-0.9,4.6-2.5,6.3-4.4l3,47.7l94,3.3v-53.7"/>
<path class="st5" d="M602.9,51c-0.6-2.1-1.4-4.3-3-5.7c-1.6-1.1-3.4-1.9-5.3-2.2c-4.6-1.2-9.2-2.1-13.9-2.7c-0.7-2.2-1.7-4.3-3-6.2
	c-9.8-13.8-24.3-26.9-41.4-29.8c-8.9-1.5-19.3-0.2-25,6.9c-3.1,3.9-4.5,9-7.7,12.8c-6.1,7.4-17.1,8.3-24.8,14
	c-4.1,3-7.1,7.3-10,11.6c-3.2,4.6-6.4,9.3-7.4,14.8c-2,10.9,5.2,21.3,6.5,32.3c3,24.6-23.4,46.5-18.4,70.8
	c2.9,14.2,16,24.1,29.5,29.2c4.8,1.8,10.2,3.6,12.5,8.1c1,2,1.2,4.3,2.1,6.3c3.2,6.7,13.5,7,19.1,2.1s7.3-12.9,8-20.3
	c2.7-32.4-10.3-64.3-8.8-96.8c0.5-9.8,3.2-20.9,12-25.4c11.8-6,26.1,4,39.1,2.1c6.2,15,7.5,31.5,3.7,47.3c-2.1,8.6-5.7,17-5.9,25.9
	c-0.4,13.6,6.9,25.9,13.2,37.9c1.4,2.2,2.3,4.7,2.7,7.3c0.1,2.6-0.4,5.2-1.4,7.6c-3.6,9.6-9.7,18.5-10.4,28.8
	c-0.2,1.2,0.1,2.4,0.8,3.4c0.7,0.7,1.6,1.1,2.6,1.2c10.8,1.9,20.1-7.7,25.4-17.3c5.9-10.6,9.3-22.4,10-34.5
	c1.1-20.4-6.2-40.4-5.8-60.8C598.5,96.6,609,73.3,602.9,51z"/>
<path class="st11" d="M603.9,50c-0.6-2.1-1.4-4.3-3-5.7c-1.6-1.1-3.4-1.9-5.3-2.2c-4.6-1.2-9.2-2.1-13.9-2.7c-0.7-2.2-1.7-4.3-3-6.2
	c-9.8-13.8-24.3-26.9-41.4-29.8c-8.9-1.5-19.3-0.2-25,6.9c-3.1,3.9-4.5,9-7.7,12.8c-6.1,7.4-17.1,8.3-24.8,14
	c-4.1,3-7.1,7.3-10,11.6c-3.2,4.6-6.4,9.3-7.4,14.8c-2,10.9,5.2,21.3,6.5,32.3c3,24.6-23.4,46.5-18.4,70.8
	c2.9,14.2,16,24.1,29.5,29.2c4.8,1.8,10.2,3.6,12.5,8.1c1,2,1.2,4.3,2.1,6.3c3.2,6.7,13.5,7,19.1,2.1s7.3-12.9,8-20.3
	c2.7-32.4-10.3-64.3-8.8-96.8c0.5-9.8,3.2-20.9,12-25.4c11.8-6,26.1,4,39.1,2.1c6.2,15,7.5,31.5,3.7,47.3c-2.1,8.6-5.7,17-5.9,25.9
	c-0.4,13.6,6.9,25.9,13.2,37.9c1.4,2.2,2.3,4.7,2.7,7.3c0.1,2.6-0.4,5.2-1.4,7.6c-3.6,9.6-9.7,18.5-10.4,28.8
	c-0.2,1.2,0.1,2.4,0.8,3.4c0.7,0.7,1.6,1.1,2.6,1.2c10.8,1.9,20.1-7.7,25.4-17.3c5.9-10.6,9.3-22.4,10-34.5
	c1.1-20.4-6.2-40.4-5.8-60.8C599.5,95.6,610,72.3,603.9,50z"/>
<polygon class="st15" points="581.8,492.7 621.5,494 615.8,464.6 585.4,467.5 "/>
<path class="st12" d="M704.7,423c-2.7,3.3-13,9.3-14,11.3s-13.3,8-19.7,9s-26.3,5.3-30,7.7c-2.6,1.7-23.7,7-37.6,10
	c-3.8,0.9-7.6,1.6-11.4,2c-6,0.3-71.7-22-71.7-22l12.7-13l0.7-0.2c3.6-1.2,20.1-6.8,29.3-9.5c10.3-3,22.3-15.3,22.3-15.3
	s17.7-6,20-6.7c2.3-0.7-6-23.3-6-23.3s38.3-5.3,53.3-9.8c15-4.5,49.7-2.8,56,14.8S707.4,419.7,704.7,423z"/>
<path class="st14" d="M530,479.3c0,0-7.7,8-15.3,7.3s-34.5,2-34.5,2c-4.9,1.9-9.4,4.6-13.5,7.8c-6.3,4.9-9.6,1-10.2,0.2l-0.1-0.2
	c-3.3,10.5-11,2.5-11,2.5s3.3-32,2.3-36s6.6-10.9,6.6-10.9l9-2.3l22.8-5.8l32.7,11.3L530,479.3z"/>
<path class="st5" d="M463.2,449.8l-6.8,46.8l-0.1-0.2c-3.3,10.5-11,2.5-11,2.5s3.3-32,2.3-36s6.6-10.9,6.6-10.9L463.2,449.8z"/>
<path class="st5" d="M510.4,316.7c0,0,17.7,6,33,0"/>
<path class="st5" d="M570.7,328c0,0,7.3,3.7,13,0"/>
<path class="st5" d="M570.7,336.7c0,0,12.3,1.7,14.7-1.7"/>
<path class="st5" d="M566.7,355.3c0,0,23.2-3,28.9-7"/>
<path class="st5" d="M496,348.3c0,0,13,7.3,22.7,7"/>
<path class="st5" d="M603.4,461c-3.8,0.9-7.6,1.6-11.4,2c-6,0.3-71.7-22-71.7-22l12.7-13l0.7-0.2c2,1.4,3.6,2.6,4.8,3.5
	c5.5,4.3,10.8-1.3,12.8-1.3s19.3,14.3,19.3,14.3s16,3.7,18.7,7c2.7,3.3,12,2.7,13.7,5C603.5,457,603.6,458.8,603.4,461z"/>
<path class="st12" d="M480.2,374.3c0,0-16.2,0.9-25.5-3s-40.3-13-49.3-6.6s-30.7,12-20.7,37.3c10,25.3,14.7,26,14.7,26
	c3.1,2.3,5.8,5.1,8,8.3c3,4.7,31,15.3,38,15.3s19.3,0,36.7,12s33,13.3,33,13.3s22,9,28.8,11s38.2,10.7,45.5,8s12-19.3,12-19.3
	s3.3-15,1.7-17.3c-1.7-2.3-11-1.7-13.7-5c-2.7-3.3-18.7-7-18.7-7S553.4,433,551.4,433s-7.3,5.7-12.8,1.3c-11-8.1-22.5-15.5-34.5-22
	C491.4,405.7,480.2,374.3,480.2,374.3z"/>
<path class="st5" d="M447.7,384c5.8-1.2,11.9,0.4,16.4,4.3c8,6.7,34.9,20.1,34.9,20.1"/>
<path class="st5" d="M647.7,383.6c0,0-35.7,5.4-42.3,12.7"/>
<path class="st14" d="M688.7,494h-1.6c-5.6-0.2-24.8-0.8-28.4,0c-4.3,1-61.7,0-61.7,0l11.2-2.3c0,0-4.2-14.6-1.5-15.8
	c0,0-15-9.9-3.7-16.5s23.5-3.9,23.5-3.9l28.4-9.6l5.5-1.9c0,0,32,1.7,40.7,23.7S688.7,494,688.7,494z"/>
<path class="st5" d="M688.7,494h-1.6c9.3-7.7,30.4-31.1-32.2-48.1l5.5-1.8c0,0,32,1.7,40.7,23.7C709.7,489.7,688.7,494,688.7,494z"
	/>
<circle class="st12" cx="629.9" cy="466.3" r="1.8"/>
<circle class="st12" cx="619.7" cy="469.2" r="1.8"/>
<g class="st16">
	<path d="M570.2,99.4c0.4-11-1.6-22-5.7-32.1c-13,1.9-27.2-8.1-39.1-2.1c-8.8,4.4-11.5,15.6-12,25.4c-0.1,2.6-0.1,5.2-0.1,7.8
		c0-0.9,0-1.9,0.1-2.8c0.5-9.8,3.2-20.9,12-25.4c11.8-6,26.1,4,39.1,2.1C568,80.9,569.9,90.1,570.2,99.4z"/>
	<path d="M469.4,97.6c0.2-2.2,0.1-4.4-0.1-6.5c-1.1-8.8-5.9-17.2-6.7-25.8c-1.1,10.3,5.5,20.3,6.7,30.8
		C469.4,96.6,469.4,97.1,469.4,97.6z"/>
	<path d="M522.1,187.3c-0.6,7.4-2.4,15.4-8,20.3s-16,4.6-19.1-2.1c-1-2-1.2-4.3-2.1-6.3c-2.2-4.6-7.7-6.4-12.5-8.1
		c-13.5-5.1-26.6-15-29.5-29.2c-0.3-1.3-0.4-2.6-0.5-3.9c-0.2,3-0.1,6,0.5,8.9c2.9,14.2,16,24.1,29.5,29.2
		c4.8,1.8,10.2,3.6,12.5,8.1c1,2,1.2,4.3,2.1,6.3c3.2,6.7,13.5,7,19.1,2.1s7.3-12.9,8-20.3c0.3-3.9,0.4-7.8,0.3-11.7
		C522.4,182.9,522.3,185.1,522.1,187.3z"/>
	<path d="M599.3,114.1c0,1.4,0,2.9,0,4.3c0.6-18.6,7.4-37.3,6.7-55.5C605.5,79.7,599.7,96.9,599.3,114.1z"/>
	<path d="M577.9,189.3c0.2-1.2,0.3-2.4,0.2-3.6c-0.4-2.6-1.3-5.1-2.7-7.3c-5.8-11-12.4-22.3-13.2-34.5c0,0.5-0.1,1-0.1,1.6
		c-0.4,13.5,6.9,25.9,13.2,37.9C576.5,185.2,577.3,187.2,577.9,189.3z"/>
	<path d="M605.1,174.8c-0.7,12.1-4.2,23.9-10.1,34.5c-5.3,9.6-14.6,19.2-25.4,17.3c-1-0.1-1.9-0.5-2.6-1.2c-0.2-0.2-0.4-0.5-0.5-0.8
		c-0.1,0.8-0.2,1.6-0.3,2.4c-0.2,1.2,0.1,2.4,0.8,3.4c0.7,0.7,1.6,1.1,2.6,1.2c10.8,1.9,20.1-7.7,25.4-17.3
		c5.9-10.6,9.3-22.4,10.1-34.5c0.1-2.3,0.1-4.7,0.1-7C605.1,173.5,605.1,174.2,605.1,174.8z"/>
</g>
<path class="st17" d="M606.7,475.9c0,0,25.3,10.6,42-12.9"/>
<path class="st17" d="M611.7,494.4c0,0,20.7-13.4,47-0.4"/>
<path class="st17" d="M473.3,491.4c0,0,8.7-19.6,31.9-4.7"/>
<path class="st5" d="M445.2,201.8l17.7-16c0,0,68.6-4.5,71.5,18.8c0,0,24.3-27.7,75.5-21.5l21.7,17.2l-59.8,26.3l-58.2,20.2
	l-42.8-19.2L445.2,201.8z"/>
<path class="st4" d="M445.2,202.8l17.7-16c0,0,68.6-4.5,71.5,18.8c0,0,24.3-27.7,75.5-21.5l21.7,17.2l-59.8,26.3l-58.2,20.2
	l-42.8-19.2L445.2,202.8z"/>
<polygon class="st5" points="437.4,204.8 445.2,298.5 528.2,302.7 524.6,209.4 524.5,207.8 "/>
<polygon class="st1" points="437.4,202.8 445.2,296.5 528.2,300.7 524.6,207.4 524.5,205.8 "/>
<polygon class="st5" points="635.3,202.8 549.7,215.7 549.7,309.8 633.4,297.7 "/>
<polygon class="st1" points="635.3,200.8 549.7,213.7 549.7,307.8 633.4,295.7 "/>
<polygon class="st6" points="615.1,223.8 568.9,228.9 569.9,244.7 615.1,239.8 "/>
<path class="st10" d="M449.7,346.7l4.7,12.7c0,0,7,6,14.7,3s14.3-4.5,17.7-7.4c3.3-2.9,8-17.6,8-17.6s4.7-16,9.3-20s17-59.1,0-53.7
	c-17,5.4-30,55.4-30,55.4s-3,3.7-7.3,4c-4.3,0.3-13-0.7-14.7,3C450.4,329.7,444.7,339.3,449.7,346.7z"/>
<path class="st5" d="M549.7,215.7c-8.9,2-18.2-0.3-25.1-6.3l3.6,93.3c0,0,8.5,9.2,21.5,7.1V215.7z"/>
<path class="st1" d="M549.7,213.7c-8.9,2-18.2-0.3-25.1-6.3l3.6,93.3c0,0,8.5,9.2,21.5,7.1V213.7z"/>
<path class="st5" d="M549.7,213.7c-8.9,2-18.2-0.3-25.1-6.3l3.6,93.3c0,0,8.5,9.2,21.5,7.1V213.7z"/>
<path class="st5" d="M551.7,203.2c0,0,34.8-10.6,43.9-9.1"/>
<path class="st5" d="M512.8,198.5c0,0-33.8-8-39.4-5.7"/>
<path class="st5" d="M573.7,204.5c0,0,23.3-8.5,31.7-4.5"/>
<path class="st5" d="M561.9,418.7c3.6-2.7,7.5-5.1,11.5-7.1c6-2.9,17-10.4,17-10.4"/>
<path class="st5" d="M473.3,316.7c0,0-14.6,12-19,13s-7.1,10.4-7.1,10.4"/>
<path class="st10" d="M626.7,344.9l-4.7,12.7c0,0-7,6-14.7,3s-14.3-4.5-17.7-7.4c-3.3-2.9-8-17.6-8-17.6s-4.7-16-9.3-20
	s-17-59.1,0-53.7c17,5.4,30,55.4,30,55.4s3,3.7,7.3,4c4.3,0.3,13-0.7,14.7,3C626.1,327.9,631.7,337.6,626.7,344.9z"/>
<path class="st5" d="M618.6,321.5c0,0,9.5,6.1,9.5,13.5"/>
<circle class="st10" cx="537.5" cy="98.9" r="44.7"/>
<path class="st11" d="M509.5,86.9c5.4-0.9,10.2-4,15.3-5.8c11.6-4.1,24.4-1.3,36.1,2.4c4.5,1.4,9.1,3,13.8,3s9.7-1.9,12.1-6
	c2.2-3.7,1.8-8.6-0.1-12.5s-5-7.1-8.2-10.1c-10.4-9.8-23.3-19-37.6-18c-5.7,0.4-11.2,2.5-16.5,4.7c-6.6,2.9-13.1,6.1-19.4,9.8
	c-4.8,2.8-13.7,6.5-16.5,11.6C482.4,77.5,499.7,88.4,509.5,86.9z"/>
<path class="st5" d="M586.9,76.3c-2.4,4.1-7.4,6-12.1,6s-9.3-1.5-13.8-2.9c-11.7-3.7-24.5-6.5-36.1-2.4c-5.2,1.8-9.9,5-15.3,5.8
	c-7.9,1.2-20.6-5.6-22-14.4c-1.5,10.1,13.2,18.8,22,17.4c5.4-0.9,10.2-4,15.3-5.8c11.6-4.1,24.4-1.3,36.1,2.4
	c4.5,1.4,9.1,3,13.8,2.9s9.7-1.9,12.1-6c1.2-2.2,1.7-4.8,1.4-7.3C588.2,73.5,587.7,74.9,586.9,76.3z"/>
<path class="st1" d="M949.4,618.2c0,0,5.9,7.8-2.7,19.5s-15.8,21.6-12.9,28.9c0,0,13.1-21.7,23.7-22S961.1,631.3,949.4,618.2z"/>
<path class="st5" d="M949.4,618.2c0.5,0.7,0.9,1.6,1.2,2.4c10.4,12.2,15.9,23.6,5.9,23.9c-9.3,0.3-20.4,16.9-23.1,21.1
	c0.1,0.3,0.2,0.7,0.3,1c0,0,13.1-21.7,23.7-22S961.1,631.3,949.4,618.2z"/>
<path class="st18" d="M960.4,628.1c0,2.7-0.3,4.9-0.7,4.9s-0.7-2.2-0.7-4.9s0.4-1.4,0.8-1.4S960.4,625.4,960.4,628.1z"/>
<path class="st18" d="M964.2,631.4c-2.4,1.3-4.5,2.1-4.7,1.8s1.6-1.7,4-3s1.4-0.4,1.6,0S966.6,630,964.2,631.4z"/>
<path class="st1" d="M918.1,618.2c0,0-5.9,7.8,2.7,19.5s15.8,21.6,12.9,28.9c0,0-13.1-21.7-23.7-22S906.4,631.3,918.1,618.2z"/>
<path class="st5" d="M918.1,618.2c-0.5,0.7-0.9,1.6-1.2,2.4c-10.4,12.2-15.9,23.6-5.9,23.9c9.3,0.3,20.5,16.9,23.1,21.1
	c-0.1,0.3-0.2,0.7-0.3,1c0,0-13.1-21.7-23.7-22S906.4,631.3,918.1,618.2z"/>
<path class="st18" d="M907.1,628.1c0,2.7,0.3,4.9,0.7,4.9s0.7-2.2,0.7-4.9s-0.4-1.4-0.8-1.4S907.1,625.4,907.1,628.1z"/>
<path class="st18" d="M903.3,631.4c2.4,1.3,4.5,2.1,4.7,1.8s-1.6-1.7-4-3s-1.5-0.4-1.6,0S900.9,630,903.3,631.4z"/>
<ellipse class="st8" cx="933.8" cy="716.4" rx="62" ry="9.5"/>
<path class="st1" d="M965.7,656.1l-0.3,2.4l-0.4,3.4l-0.2,1.4l-0.4,3.4l-0.2,1.4l-0.4,3.4l-4.8,38.9c-0.4,3.5-6.1,6.2-12.9,6.2
	h-24.6c-6.8,0-12.5-2.7-12.9-6.2l-4.8-38.9l-0.4-3.4l-0.2-1.4l-0.4-3.4l-0.2-1.4l-0.4-3.4l-0.3-2.4c-0.2-2,2.8-3.6,6.7-3.6H959
	C962.8,652.5,965.9,654.1,965.7,656.1z"/>
<polygon class="st19" points="965.4,658.5 965,662 902.5,662 902.1,658.5 "/>
<polygon class="st19" points="964.8,663.4 964.4,666.8 903.1,666.8 902.7,663.4 "/>
<polygon class="st19" points="964.2,668.2 963.8,671.7 903.7,671.7 903.3,668.2 "/>
</svg>
