<!-- Generated by IcoMoon.io -->
<svg version="1.1" xmlns="http://www.w3.org/2000/svg" width="32" height="32" viewBox="0 0 32 32">
<title>clipboard-list</title>
<path d="M13 5v-1.002c0-1.1 0.898-1.998 2.005-1.998h0.99c1.111 0 2.005 0.895 2.005 1.998v1.002h2.004c0.551 0 0.996 0.447 0.996 0.999v1.002c0 0.556-0.446 0.999-0.996 0.999h-9.009c-0.551 0-0.996-0.447-0.996-0.999v-1.002c0-0.556 0.446-0.999 0.996-0.999h2.004zM22 6h1.003c1.107 0 1.997 0.897 1.997 2.004v20.993c0 1.114-0.894 2.004-1.997 2.004h-15.005c-1.107 0-1.997-0.897-1.997-2.004v-20.993c0-1.114 0.894-2.004 1.997-2.004h1.003c0 0.002 0 0.003 0 0.005v0.99c0 1.107 0.894 2.005 2.003 2.005h8.994c1.106 0 2.003-0.894 2.003-2.005v-0.99c0-0.002 0-0.003 0-0.005v0 0zM15.5 5c0.276 0 0.5-0.224 0.5-0.5s-0.224-0.5-0.5-0.5c-0.276 0-0.5 0.224-0.5 0.5s0.224 0.5 0.5 0.5v0zM14 14v1h8v-1h-8zM9 13v3h3v-3h-3zM10 14v1h1v-1h-1zM9 18v3h3v-3h-3zM10 19v1h1v-1h-1zM14 19v1h8v-1h-8zM9 23v3h3v-3h-3zM10 24v1h1v-1h-1zM14 24v1h8v-1h-8z"></path>
</svg>
