<!-- Generated by IcoMoon.io -->
<svg version="1.1" xmlns="http://www.w3.org/2000/svg" width="32" height="32" viewBox="0 0 32 32">
<title>clipboard-add</title>
<path d="M21 27h-3v-1h3v-3h1v3h3v1h-3v3h-1v-3zM24 20.498v-13.495c0-1.107-0.891-2.004-1.997-2.004h-1.003c0 0.002 0 0.003 0 0.005v0.99c0 1.111-0.897 2.005-2.003 2.005h-8.994c-1.109 0-2.003-0.898-2.003-2.005v-0.99c0-0.002 0-0.003 0-0.005h-1.003c-1.103 0-1.997 0.89-1.997 2.004v20.993c0 1.107 0.891 2.004 1.997 2.004h9.024c-0.647-1.010-1.022-2.211-1.022-3.5 0-3.59 2.91-6.5 6.5-6.5 0.886 0 1.73 0.177 2.5 0.498v0zM12 4v-1.002c0-1.1 0.898-1.998 2.005-1.998h0.99c1.111 0 2.005 0.895 2.005 1.998v1.002h2.004c0.551 0 0.996 0.447 0.996 0.999v1.002c0 0.556-0.446 0.999-0.996 0.999h-9.009c-0.551 0-0.996-0.447-0.996-0.999v-1.002c0-0.556 0.446-0.999 0.996-0.999h2.004zM14.5 4c0.276 0 0.5-0.224 0.5-0.5s-0.224-0.5-0.5-0.5c-0.276 0-0.5 0.224-0.5 0.5s0.224 0.5 0.5 0.5v0zM21.5 32c3.038 0 5.5-2.462 5.5-5.5s-2.462-5.5-5.5-5.5c-3.038 0-5.5 2.462-5.5 5.5s2.462 5.5 5.5 5.5v0z"></path>
</svg>
