<!-- Generated by IcoMoon.io -->
<svg version="1.1" xmlns="http://www.w3.org/2000/svg" width="24" height="28" viewBox="0 0 24 28">
<title>hand-o-down</title>
<path d="M22 15c0-3.109-2-5.766-2-8.5v-0.5h-10v0.5c0 1.656-1.406 2.766-2.547 3.766-0.719 0.641-1.437 1.234-2.266 1.75-0.344 0.219-0.703 0.406-1.062 0.594s-2.125 0.969-2.125 1.391c0 1.328 0.5 2.5 2 2.5 2 0 3.016-1.5 4-1.5v9c0 1.047 0.938 2 2 2 1.078 0 2-0.922 2-2v-5.172c0.406 0.313 1.094 0.547 1.609 0.547 0.734 0 1.359-0.297 1.859-0.828 0.328 0.187 0.703 0.281 1.078 0.281 0.719 0 1.609-0.359 1.969-1.016 0.281 0.047 0.578 0.063 0.875 0.063 1.844 0 2.609-1.141 2.609-2.875zM20 3c0-0.547-0.453-1-1-1s-1 0.453-1 1 0.453 1 1 1 1-0.453 1-1zM24 14.938c0 2.875-1.625 4.969-4.609 4.953l-0.078-0.016c-0.781 0.625-1.781 0.953-2.781 0.953-0.219 0-0.453-0.016-0.672-0.047-0.531 0.297-1.25 0.516-1.859 0.578v2.641c0 2.188-1.828 4-4.016 4-2.156 0-3.984-1.844-3.984-4v-5.844c-0.609 0.25-1.344 0.344-2 0.344-2.625 0-4-2.016-4-4.5 0-2.094 2.672-2.766 4.125-3.672 0.734-0.469 1.375-1 2.016-1.563 0.516-0.453 1.859-1.516 1.859-2.266v-4.5c0-1.109 0.891-2 2-2h10c1.109 0 2 0.891 2 2v4.5c0 0.984 0.578 2.531 0.922 3.484 0.578 1.594 1.078 3.234 1.078 4.953z"></path>
</svg>
