<!-- Generated by IcoMoon.io -->
<svg version="1.1" xmlns="http://www.w3.org/2000/svg" width="24" height="28" viewBox="0 0 24 28">
<title>hand-o-up</title>
<path d="M20 25c0-0.547-0.453-1-1-1s-1 0.453-1 1 0.453 1 1 1 1-0.453 1-1zM22 13.062c0-1.766-0.719-2.953-2.609-2.953-0.297 0-0.594 0.031-0.875 0.078-0.359-0.656-1.25-1.016-1.969-1.016-0.375 0-0.75 0.094-1.078 0.281-0.5-0.531-1.125-0.828-1.859-0.828-0.5 0-1.234 0.219-1.609 0.547v-5.172c0-1.078-0.922-2-2-2-1.062 0-2 0.953-2 2v9c-0.984 0-2-1.5-4-1.5-1.5 0-2 1.172-2 2.5 0 0.438 1.813 1.234 2.172 1.406 0.344 0.187 0.688 0.375 1.016 0.578 0.828 0.516 1.547 1.109 2.266 1.75 1.141 1 2.547 2.109 2.547 3.766v0.5h10v-0.5c0-2.734 2-5.406 2-8.437zM24 12.984c0 1.75-0.484 3.406-1.078 5.031-0.344 0.953-0.922 2.5-0.922 3.484v4.5c0 1.109-0.891 2-2 2h-10c-1.109 0-2-0.891-2-2v-4.5c0-0.75-1.344-1.813-1.859-2.266-0.641-0.562-1.281-1.094-2.016-1.563-1.453-0.906-4.125-1.578-4.125-3.672 0-2.484 1.359-4.5 4-4.5 0.688 0 1.359 0.109 2 0.344v-5.844c0-2.156 1.828-4 3.984-4 2.188 0 4.016 1.813 4.016 4v2.641c0.656 0.047 1.281 0.25 1.859 0.578 0.219-0.031 0.453-0.047 0.672-0.047 1 0 2 0.328 2.781 0.938 2.953-0.031 4.688 1.984 4.688 4.875z"></path>
</svg>
