<!-- Generated by IcoMoon.io -->
<svg version="1.1" xmlns="http://www.w3.org/2000/svg" width="32" height="32" viewBox="0 0 32 32">
<title>lock-rounded-open</title>
<path d="M21 23.915v2.594c0 0.271 0.232 0.491 0.5 0.491 0.276 0 0.5-0.228 0.5-0.491v-2.594c0.583-0.206 1-0.762 1-1.415 0-0.828-0.672-1.5-1.5-1.5s-1.5 0.672-1.5 1.5c0 0.653 0.417 1.209 1 1.415v0 0zM14 8.5c0-2.485-2.020-4.5-4.5-4.5-2.485 0-4.5 2.017-4.5 4.5v3.999c0 0.822-0.672 1.501-1.5 1.501-0.834 0-1.5-0.672-1.5-1.501v-4c0-4.143 3.358-7.499 7.5-7.499 4.134 0 7.5 3.358 7.5 7.499v7.501h11.991c1.663 0 3.009 1.347 3.009 3.009v4.991c0 4.409-3.581 8-7.999 8h-5.002c-4.413 0-7.999-3.582-7.999-8v-4.991c0-1.67 1.342-3.005 3-3.009v-7.5z"></path>
</svg>
