<!-- Generated by IcoMoon.io -->
<svg version="1.1" xmlns="http://www.w3.org/2000/svg" width="32" height="32" viewBox="0 0 32 32">
<title>mail-remove</title>
<path d="M20.135 16.83l-2.135-1.83 5.923-5.077-0.808-0.808-8.615 7.385-8.615-7.385-0.808 0.808 5.923 5.077-5.923 5.077 0.808 0.808 5.99-5.135 2.625 2.25 2.625-2.25 2.441 2.093c-0.364 0.811-0.566 1.711-0.566 2.657 0 0.886 0.177 1.73 0.498 2.5h-15.495c-1.114 0-2.004-0.893-2.004-1.994v-12.012c0-1.1 0.897-1.994 2.004-1.994h20.993c1.114 0 2.004 0.893 2.004 1.994v5.18c-0.482-0.114-0.984-0.174-1.5-0.174-2.228 0-4.194 1.121-5.365 2.83v0 0zM25.5 26v0c-3.038 0-5.5-2.462-5.5-5.5s2.462-5.5 5.5-5.5c3.038 0 5.5 2.462 5.5 5.5s-2.462 5.5-5.5 5.5zM22 20v1h7v-1h-7z"></path>
</svg>
