<!-- Generated by IcoMoon.io -->
<svg version="1.1" xmlns="http://www.w3.org/2000/svg" width="32" height="32" viewBox="0 0 32 32">
<title>trash-can</title>
<path d="M21 6h4v1h-17v-1h4v-1c0-1.112 0.894-2 1.997-2h5.005c1.102 0 1.997 0.895 1.997 2v1zM8 8h17v18.999c0 1.658-1.343 3.001-3 3.001h-11c-1.666 0-3-1.344-3-3.001v-18.999zM9 9v18.009c0 1.099 0.893 1.991 1.992 1.991h11.016c1.1 0 1.992-0.898 1.992-1.991v-18.009h-15zM12 11v16h1v-16h-1zM16 11v16h1v-16h-1zM20 11v16h1v-16h-1zM14.003 4c-0.554 0-1.003 0.444-1.003 1v1h7v-1c0-0.552-0.438-1-1.003-1h-4.994z"></path>
</svg>
